<svg xmlns="http://www.w3.org/2000/svg" viewBox="0 0 1236.5 600.37"><defs><style>.cls-1{fill:#fff;}.cls-2{fill:#63acc2;}.cls-3,.cls-5{fill:#9ec8ff;}.cls-3,.cls-7{opacity:0.7;}.cls-4{opacity:0.8;}.cls-6{fill:#f37168;}.cls-8{fill:#007d87;}.cls-9{fill:#9cd499;}.cls-10{fill:#74b570;}.cls-11{fill:#facf50;}.cls-12{fill:#e0b03e;}.cls-13{fill:#3edeab;}.cls-14{fill:#0056d8;opacity:0.57;}.cls-15{fill:#0063d8;opacity:0.76;}.cls-16{fill:#00bfd8;}.cls-17{fill:#bfe6f2;}.cls-18{fill:#1c447a;}.cls-19{fill:#d54a41;}.cls-20{fill:#993341;}.cls-21{fill:#dbe5eb;}.cls-22{fill:#3e6bab;}.cls-23{fill:#f09959;}.cls-24{fill:#e38540;}.cls-25{fill:#3a384d;}.cls-26{fill:#303c60;}.cls-27{fill:#394873;}.cls-28{fill:#f2f2f2;}.cls-29{fill:#0f2d5c;}.cls-30{fill:#0e3a82;}.cls-31{fill:#368da8;}.cls-32{fill:#153f9c;}</style></defs><title>Asset 1</title><g id="Layer_2" data-name="Layer 2"><g id="Layer_1-2" data-name="Layer 1"><rect class="cls-1" x="63.71" y="2" width="304.47" height="435.85"/><path class="cls-2" d="M370.18,439.86H61.71V0H370.18Zm-304.46-4H366.18V4H65.72Z"/><rect class="cls-3" x="146.48" y="110.74" width="194.61" height="7.77" rx="3.64"/><rect class="cls-3" x="146.48" y="124.67" width="194.61" height="7.77" rx="3.64"/><rect class="cls-3" x="146.48" y="164.94" width="194.61" height="7.77" rx="3.64"/><rect class="cls-3" x="146.48" y="178.87" width="194.61" height="7.77" rx="3.64"/><rect class="cls-3" x="146.48" y="228.74" width="194.61" height="7.77" rx="3.64"/><rect class="cls-3" x="146.48" y="242.67" width="194.61" height="7.77" rx="3.64"/><rect class="cls-3" x="146.48" y="278.56" width="194.61" height="7.77" rx="3.64"/><rect class="cls-3" x="146.48" y="292.49" width="194.61" height="7.77" rx="3.64"/><g class="cls-4"><path class="cls-5" d="M110.21,137.59H97.79A9.8,9.8,0,0,1,88,127.8V115.38a9.8,9.8,0,0,1,9.79-9.79h12.42a9.81,9.81,0,0,1,9.79,9.79V127.8A9.81,9.81,0,0,1,110.21,137.59ZM97.79,111.2a4.19,4.19,0,0,0-4.19,4.18V127.8A4.19,4.19,0,0,0,97.79,132h12.42a4.19,4.19,0,0,0,4.18-4.18V115.38a4.18,4.18,0,0,0-4.18-4.18Z"/></g><g class="cls-4"><path class="cls-5" d="M110.21,190.37H97.79A9.8,9.8,0,0,1,88,180.58V168.16a9.81,9.81,0,0,1,9.79-9.79h12.42a9.81,9.81,0,0,1,9.79,9.79v12.42A9.81,9.81,0,0,1,110.21,190.37ZM97.79,164a4.19,4.19,0,0,0-4.19,4.18v12.42a4.2,4.2,0,0,0,4.19,4.19h12.42a4.19,4.19,0,0,0,4.18-4.19V168.16a4.19,4.19,0,0,0-4.18-4.18Z"/></g><path class="cls-6" d="M104.77,183h-.11a2.44,2.44,0,0,1-1.8-.94L93.94,170.4a2.4,2.4,0,1,1,3.81-2.92l7.2,9.39,19.8-21.21a2.4,2.4,0,1,1,3.51,3.28l-21.73,23.28A2.41,2.41,0,0,1,104.77,183Z"/><path class="cls-5" d="M110.21,252.56H97.79a9.4,9.4,0,0,1-9.39-9.39V230.75a9.4,9.4,0,0,1,9.39-9.39h12.42a9.4,9.4,0,0,1,9.39,9.39v12.42A9.4,9.4,0,0,1,110.21,252.56ZM97.79,226.17a4.59,4.59,0,0,0-4.59,4.58v12.42a4.59,4.59,0,0,0,4.59,4.58h12.42a4.59,4.59,0,0,0,4.58-4.58V230.75a4.59,4.59,0,0,0-4.58-4.58Z"/><g class="cls-4"><path class="cls-5" d="M110.21,305.74H97.79A9.8,9.8,0,0,1,88,296V283.53a9.81,9.81,0,0,1,9.79-9.79h12.42a9.81,9.81,0,0,1,9.79,9.79V296A9.81,9.81,0,0,1,110.21,305.74ZM97.79,279.35a4.19,4.19,0,0,0-4.19,4.18V296a4.2,4.2,0,0,0,4.19,4.19h12.42a4.19,4.19,0,0,0,4.18-4.19V283.53a4.19,4.19,0,0,0-4.18-4.18Z"/></g><g class="cls-7"><path class="cls-2" d="M178.43,35.81l-14.9,34.44h-7.88L140.8,35.81h8.61l10.48,24.6,10.62-24.6Z"/><path class="cls-2" d="M190.36,68.53a17.19,17.19,0,0,1-6.74-6.38,17.56,17.56,0,0,1,6.74-24.62A20.14,20.14,0,0,1,200,35.22a19.94,19.94,0,0,1,9.64,2.31,17.57,17.57,0,0,1,0,31A19.94,19.94,0,0,1,200,70.84,20.14,20.14,0,0,1,190.36,68.53Zm15.18-5.88a10.07,10.07,0,0,0,3.86-3.91,12.27,12.27,0,0,0,0-11.42,10,10,0,0,0-3.86-3.91,11.54,11.54,0,0,0-11,0,10,10,0,0,0-3.86,3.91,12.34,12.34,0,0,0,0,11.42,10.07,10.07,0,0,0,3.86,3.91,11.54,11.54,0,0,0,11,0Z"/><path class="cls-2" d="M234,42.3H223V35.81h30V42.3H242v28h-8Z"/><path class="cls-2" d="M286.38,63.85v6.4H259.71V35.81h26V42.2H267.63v7.48h16v6.2h-16v8Z"/></g><path class="cls-8" d="M58.91,600.37S-24.88,511.29,7.4,505s66.18,74.55,69.26,66.19S54.1,472.47,68.52,470.39,107,573,107,573s3.43-54.6,29.73-66-6.33,91.5-6.33,91.5Z"/><path class="cls-9" d="M820.05,493.23c75.22-53,95.34-78.68,115.6-162.38s113.62-184.79,73.47-167.68-109.55,91-106.74,162.62S894.77,418.08,883,434.53s-62.43,52.93-62.43,52.93Z"/><path class="cls-10" d="M866.84,457.39l.78-.69c4.51-6,27.54-36.91,32.93-52.75,6-17.59,1.18-63.12,19.73-96.16s27.2-64.27,36-88c11.65-31.3,45.38-55,62.64-56.52a2.79,2.79,0,0,0-.33-.85l-4.25-1a26.11,26.11,0,0,0-5.25,1.73c-40.16,17.11-109.55,91-106.74,162.62S894.77,418.08,883,434.53c-3.18,4.44-9.19,10.33-16.27,16.57Z"/><path class="cls-9" d="M920.84,384.84c21.7-85.67,252.35-177.13,231.42-150.45s-76.64,91-139.61,115.31-87,59.61-102.23,102.75S899.13,470.51,920.84,384.84Z"/><path class="cls-10" d="M883.58,487.2a11.76,11.76,0,0,1-3-.38,1.2,1.2,0,0,1,.67-2.31s3.56,1,6.23-.73c1.61-1,2.62-2.89,3-5.51,2.55-16.83,8.29-29.65,13.34-41,3.11-6.94,5.79-12.93,7.26-18.79,2.13-8.42,8.3-23.25,19.25-39.62a186.9,186.9,0,0,1,50.44-50.73c23.07-15.51,39.43-24.31,62.06-36.48,22.36-12,50.19-27,96.68-54.81a1.2,1.2,0,1,1,1.23,2.06c-46.53,27.85-74.39,42.83-96.77,54.87-22.58,12.14-38.89,20.91-61.85,36.36-45.71,30.74-65.09,74.63-68.7,88.94-1.53,6.06-4.38,12.44-7.4,19.18-5,11.17-10.66,23.84-13.16,40.34-.51,3.34-1.9,5.76-4.12,7.18A9.47,9.47,0,0,1,883.58,487.2Z"/><path class="cls-10" d="M1046.59,294.24c-2.31,0-3.65-.09-3.78-.1a1.2,1.2,0,1,1,.17-2.4c.32,0,32.89,2.15,63.25-16.75a1.2,1.2,0,1,1,1.27,2,117.25,117.25,0,0,1-44.09,15.89A115.16,115.16,0,0,1,1046.59,294.24Z"/><path class="cls-10" d="M1038.61,319.62c-20.76,0-33.23-4-33.4-4.05a1.2,1.2,0,0,1,.75-2.28c.24.08,23.64,7.54,59.86,1.7a1.21,1.21,0,0,1,.38,2.38A174.3,174.3,0,0,1,1038.61,319.62Z"/><path class="cls-8" d="M264.18,598.49S187.4,520,197.77,505.1c17.85-25.58,93.84,63,93.84,63S185.17,329.7,204.73,278.15,304,392.37,304,392.37,380.45,23.1,414.37,27.77s16.52,192.48,16.52,192.48l231-83.65S762.36,39.77,786.4,54.54s-42.57,105.74-32.5,101.91S867.62,39.87,898.31,64.2,775.47,190.64,775.47,190.64L878.31,536.87S961.07,357.4,1053.54,376.1c47.39,9.58-97.36,141.07-97.36,141.07s90.67-66.15,126.34-46.78-99,68.92-81.39,76.19-38,43.33-38,43.33,44-26.9,63.45-15.77,13,26.23,13,26.23Z"/><path class="cls-8" d="M1133.7,598.49s5.23-103.42,26.06-99.18-4.81,77.51,0,73.72,47.43-123.06,71.78-102.67-48.92,92.09-48.92,92.09,37.39-25.73,48.92-15.87-38.13,51.91-38.13,51.91Z"/><path class="cls-9" d="M275.4,511.37c-.07-2.05-50.64-100.55-97.15-90.1s-53,24.6-85.07,31.06a202.38,202.38,0,0,1-42,3.94s22.38,24.93,66.28,22.21c31.05-1.91,62.21-29.42,84.78-33.7s50.44,37.1,50.44,37.1l12.45,22.28Z"/><path class="cls-10" d="M260.83,482.79a1.22,1.22,0,0,1-1-.48c-26.14-35.14-47.68-53.21-67.8-56.86-17.68-3.2-32,5.21-47.09,14.11-3.82,2.25-7.77,4.57-11.78,6.7-35.09,18.61-56,16.35-56.83,16.24a1.2,1.2,0,1,1,.29-2.38c.2,0,21.08,2.22,55.42-16,3.95-2.09,7.88-4.41,11.68-6.64,15.52-9.14,30.18-17.77,48.74-14.4,20.75,3.76,42.77,22.12,69.3,57.78a1.21,1.21,0,0,1-1,1.92Z"/><path class="cls-9" d="M275.89,512.67C240,398.36,190.71,346.89,118.19,318.45s-79.63-40.3-79.63-40.3,43.37,91.57,87,112.72,98.71,28.45,111.65,43,31.52,72.5,31.52,72.5l8,8.75Z"/><path class="cls-10" d="M274,507a1.2,1.2,0,0,1-1.16-.89,284.11,284.11,0,0,0-16.35-42.75c-10.37-22-28.28-53-54.72-75.79-26.17-22.58-49.48-32.73-72-42.55-21.34-9.29-41.5-18.07-61.25-36.63a1.2,1.2,0,1,1,1.64-1.75c19.45,18.27,39.42,27,60.57,36.18,22.7,9.89,46.18,20.11,72.63,42.93,26.78,23.1,44.88,54.42,55.35,76.64a286.61,286.61,0,0,1,16.48,43.1,1.2,1.2,0,0,1-.86,1.47A1.06,1.06,0,0,1,274,507Z"/><path class="cls-10" d="M156.4,356.94a1.13,1.13,0,0,1-.36-.06,142.67,142.67,0,0,0-58.9-3.23,1.2,1.2,0,1,1-.39-2.37,145,145,0,0,1,60,3.31,1.2,1.2,0,0,1-.36,2.35Z"/><path class="cls-10" d="M208.69,393.17a1.2,1.2,0,0,1-.76-.27c-24.94-20.28-45.62-20.17-90-18a1.18,1.18,0,0,1-1.26-1.14,1.2,1.2,0,0,1,1.14-1.26c45-2.21,66-2.31,91.64,18.53a1.2,1.2,0,0,1-.76,2.13Z"/><path class="cls-11" d="M560.93,54C571.31,60.6,591,83.32,603.58,96.54S623,117.11,623,117.11l-155-3.74a75.11,75.11,0,0,0,16-17.23C491.56,85,494.1,74.9,515.19,60.49S550.8,47.54,560.93,54Z"/><path class="cls-12" d="M533.22,59.29c7.61,0,12.42,29.24,16,35.65s22.59,7.61,22.59,7.61V90.47s3.45,9.08,5.85,14.82c6.81-4.34,15.83-9.55,24.65-10.15.8.44,16,16.16,16,16.16l-126.79,2.07s-7.62-4-6.41-4,10.59-16,18.31-23Z"/><path class="cls-11" d="M575.28,107.56S600.12,97,612.54,98.75s15.62,8.81,15.62,8.81Z"/><path class="cls-13" d="M710.72,561V473.1H507.12V561H440.93a22.25,22.25,0,0,0-22.25,22.25v5.41a7.23,7.23,0,0,0,7.23,7.23h366a7.24,7.24,0,0,0,7.24-7.23v-5.41A22.25,22.25,0,0,0,776.92,561Z"/><polygon class="cls-14" points="507.12 533.35 710.72 517.65 710.72 480.63 507.12 482.78 507.12 533.35"/><polygon class="cls-15" points="710.72 546.58 507.12 560.99 710.72 560.99 710.72 546.58"/><rect class="cls-16" x="290.77" y="105.29" width="636.29" height="387.89" rx="10.9"/><rect class="cls-17" x="308.65" y="121.1" width="600.53" height="332.82" rx="9.81"/><rect class="cls-18" x="582.22" y="470.39" width="53.39" height="10.24" rx="4.45"/><path class="cls-1" d="M800.05,320.32a145.32,145.32,0,0,0-15.58.63c.3-3.05.48-6.12.52-9.22,1-71.83-66.73-131-151.35-132.25-69.37-1-128.53,37.3-148.16,90.72a133,133,0,0,0-47.79-9.49c-64.46-.92-117.36,43.12-118.15,98.37s50.82,100.79,115.28,101.71c43.57.63,325.7-.85,363.26-.31,54.81.78,99.68-31.88,100.23-69.9S854.86,321.11,800.05,320.32Z"/><path class="cls-8" d="M631,187.47l2.53,0a167.85,167.85,0,0,1,56.79,10.57,148.53,148.53,0,0,1,45.84,27.1,122.81,122.81,0,0,1,30.3,39.24A104.83,104.83,0,0,1,777,311.61c0,2.78-.2,5.67-.49,8.56l-.93,9.67,9.67-.92c4.23-.4,8.53-.6,12.77-.6h1.94a129.1,129.1,0,0,1,36.3,5.61,100.89,100.89,0,0,1,29,14.07c16.36,11.7,25.24,26.78,25,42.46a44.9,44.9,0,0,1-6.85,22.74,68.3,68.3,0,0,1-19,19.91,99.42,99.42,0,0,1-28.82,14.08A120.7,120.7,0,0,1,800,452.48h-1.83c-5.7-.09-17.09-.13-34.85-.13-33.27,0-83,.14-135.7.29-54.18.15-110.2.31-148.71.31-22.27,0-36.66-.06-44-.16a124.63,124.63,0,0,1-42.59-8A111,111,0,0,1,358,424.3a92.48,92.48,0,0,1-22.62-29.59,79.28,79.28,0,0,1-7.84-35.52c.35-24.07,11.6-46.69,31.7-63.69a111,111,0,0,1,34.3-19.58,124.62,124.62,0,0,1,42.15-7.21l1.87,0a124.27,124.27,0,0,1,44.91,8.9l7.67,3.09L493,273a114.3,114.3,0,0,1,19.93-34,134.93,134.93,0,0,1,31.28-27.1,154.91,154.91,0,0,1,40.2-17.9A169.3,169.3,0,0,1,631,187.47Zm0-8c-68.23,0-126.14,38-145.52,90.74a133,133,0,0,0-47.79-9.49h-2c-63.56,0-115.38,43.7-116.16,98.38-.79,55.25,50.82,100.79,115.28,101.71,7.87.11,23.53.16,44.11.16,75.19,0,216.23-.59,284.41-.59,16.51,0,28.74,0,34.74.12H800c53.92,0,97.75-32.33,98.29-69.91.54-38-43.45-69.47-98.26-70.26h-2q-6.88,0-13.53.64c.3-3.05.48-6.12.52-9.22,1-71.83-66.73-131-151.35-132.25l-2.64,0Z"/><polygon class="cls-6" points="753.9 453.93 455.03 453.93 455.03 333.83 534.98 305.89 668.86 305.89 753.9 333.83 753.9 453.93"/><polygon class="cls-19" points="534.98 305.89 455.03 333.83 753.9 333.83 668.86 305.89 534.98 305.89"/><polygon class="cls-6" points="661.86 323.43 545.3 323.43 566.24 312.16 640.91 312.16 661.86 323.43"/><path class="cls-20" d="M644.6,319H563.73a1.2,1.2,0,0,1,0-2.4H644.6a1.2,1.2,0,0,1,0,2.4Z"/><rect class="cls-19" x="520.13" y="379.91" width="165.71" height="44.68" rx="9.75"/><path class="cls-21" d="M552.32,210.84c4.24-6.49,43.76-18.06,46.58-17.78s23.31,46.3,27.6,64.36,4.87,20.89,4.87,20.89-45.74,15-54.21,16.38l-8.47,1.41s-4.23-40.65-8.46-55.61S552.32,210.84,552.32,210.84Z"/><path class="cls-22" d="M582,277.34a1,1,0,0,1-1-.73,1,1,0,0,1,.69-1.24L608,268a1,1,0,0,1,.54,1.93l-26.26,7.34A.84.84,0,0,1,582,277.34Z"/><path class="cls-22" d="M580.55,273.67a1,1,0,0,1-1-.72,1,1,0,0,1,.68-1.24l25.41-7.34a1,1,0,1,1,.56,1.92l-25.41,7.34A.9.9,0,0,1,580.55,273.67Z"/><path class="cls-22" d="M575.75,258.43a1,1,0,0,1-.26-2l23.71-6.54a1,1,0,0,1,.53,1.93L576,258.39A1.26,1.26,0,0,1,575.75,258.43Z"/><path class="cls-22" d="M575.75,255.16a1,1,0,0,1-.27-2l23.72-6.61a1,1,0,0,1,.53,1.93L576,255.12A1.26,1.26,0,0,1,575.75,255.16Z"/><path class="cls-22" d="M570.39,242.05a1,1,0,0,1-.29-2L593,233.32a1,1,0,0,1,1.25.67,1,1,0,0,1-.68,1.25L570.67,242A.9.9,0,0,1,570.39,242.05Z"/><path class="cls-22" d="M570.39,238.66a1,1,0,0,1-.71-.29,1,1,0,0,1,0-1.41c.22-.23.75-.75,21.89-6.75a1,1,0,0,1,1.24.69,1,1,0,0,1-.69,1.23c-7.58,2.15-19.93,5.75-21.15,6.35A1,1,0,0,1,570.39,238.66Z"/><path class="cls-19" d="M608.22,255.36a1.45,1.45,0,0,1-.29,0,1.2,1.2,0,0,1-.88-1.45L609.72,243a1.2,1.2,0,0,1,2-.6l4.67,4.23a1.2,1.2,0,1,1-1.61,1.78l-3.18-2.88-2.19,8.89A1.19,1.19,0,0,1,608.22,255.36Z"/><path class="cls-23" d="M575.43,29.89,554.32,49.81c-5.49,4.26-6.11,7.52-5.08,14.39,1.28,8.5,3.45,15,7,15,6,0,5.47-16.7,5.47-16.7l20.49-20.61Z"/><path class="cls-24" d="M575.43,29.89l-6.24,4.85a72.27,72.27,0,0,0-3.52,23.72l16.48-16.58Z"/><path class="cls-23" d="M597.48,49.74c-4.41,8.62-12.05,15.78-18,14.25-6.13-1.58-12.32-12-7.67-21.61,4.5-9.26,10.88-16.28,18-14.25S602.17,40.56,597.48,49.74Z"/><path class="cls-23" d="M562.06,175.6c7.21,11,13.89,18.69,16,27s-3.48,21.1-6.82,16.83S563.39,214,562.33,202c-1.34-15-6.68-17-6.68-17Z"/><path class="cls-11" d="M535.22,56.63c8,3.86,8.41,69.56,20.83,98s12.69,28.64,12.69,28.64-10.73,6.28-13,7.37-29.4-34-34.5-53.63C512,101.55,503,95.94,492.76,94.34c1.8-5.21,11.61-17.42,23.23-27.44S535.22,56.63,535.22,56.63Z"/><path class="cls-23" d="M597.61,105.29s7.35-5.54,13.77-4.74,19,6.61,16.43,8.61-9.81,2.21-14.22,0S598.62,104.29,597.61,105.29Z"/><path class="cls-25" d="M559.53,44.89c9.21-.69,13.67-7.42,14.5-8.44s1.35,8,3.12,8.68,3.77-4.29,6-8.49,5.12-3.81,5.39,0,2.88,15.31,9.11,17.9a51.86,51.86,0,0,0,9.32,2.88,66.16,66.16,0,0,1-.94-15c.94-11.34-8.92-21-16.69-22.3-6.19-1.06-16.93-.19-21.36,8.55C563.66,37.12,559.53,44.89,559.53,44.89Z"/><path class="cls-23" d="M577.49,39.77c-.89,2.7-3.16,4.38-5.07,3.76s-2.73-3.33-1.84-6,3.16-4.39,5.06-3.76S578.37,37.06,577.49,39.77Z"/><path class="cls-25" d="M994.74,243.51c-5.28-4.08-31.11,6.34-31.64,15.86s7.1,29.85,23.62,31.29,18.51-.44,19.92-13.48S1002.05,249.15,994.74,243.51Z"/><path class="cls-26" d="M1065.81,565.67s11.75,4.86,9.87,7.36,3.76,16.85,3.76,16.85h-2.35l-4.47-9.22s1.88,11.16-2.11,12.89-17.86,5.67-16.92,2.44c.5-1.72,3.82-5.93,3.82-5.93Z"/><path class="cls-23" d="M1058.35,567.77c2.05,5.66.17,21.41-2.65,24.46s8.7.24,10.81-2.58,1.58-21.24,1.58-21.24Z"/><path class="cls-26" d="M930.43,568.07s8,9.85,5.19,11.16-4.68,16.62-4.68,16.62l-2.07-1.12.44-10.23s-3.64,10.71-8,10.34-19.75-1.29-16.05-5.89c1.12-1.39,5.82-3.12,5.82-3.12Z"/><path class="cls-23" d="M922.87,566.38c-.88,6-10,18.92-13.94,20.27s7.54,4.33,10.74,2.85,11.47-17.93,11.47-17.93Z"/><path class="cls-23" d="M985,386.22s16.57,83.45,25,102.13c6.39,14.12,47.24,83.9,52.53,82.85s5.57-2.79,5.57-2.79-15.57-55.56-23.9-67c-13-17.92-9.88-22.62-10.23-56.11s0-34.14-8.8-54.23l-8.83-20.1Z"/><path class="cls-23" d="M985,379.32S946.25,470,943.57,479.54s-21.36,90.25-21.36,90.25,4.31,3.74,7.63,3.19,32.57-56.07,33.35-74.05,36.22-55.35,40.45-71.22S985,379.32,985,379.32Z"/><path class="cls-6" d="M1061.28,421.37s5.47,45.47,5.12,58.69,0,14.81,0,14.81l49-7.58s-6.52-24.41-9-30.71S1061.28,421.37,1061.28,421.37Z"/><path class="cls-1" d="M1062.69,423s2.69,20.36,5.4,41.86,2.89,26.8,2.89,26.8l44.42-6Z"/><path class="cls-6" d="M1085.61,419.87c-2.29.61-26.09,0-26.09,0a614.58,614.58,0,0,1,16,68.48c25.56-2.69,46.19-3.53,46.19-3.53s-11.07-36-16.73-48.29-8.13-16.66-8.13-16.66Z"/><path class="cls-23" d="M1083.49,402.47s5.65,9.73,6.7,16.25-.35,19.39-3.35,19.39-3.17-1.1-5.11-8.13-3-9.69-3-9.69h-4.23V401.62Z"/><path class="cls-27" d="M1018.27,374.3c.94,1.21,15.81,25.91,18.16,47.77s1.88,58.76,1.88,58.76l-11.78,2.35-7-47.95-3.06,47.95s-13.16,4.7-31.49,1.17-38.55-16-38.55-16l35.73-86Z"/><path class="cls-28" d="M1005.05,296.57s18,5.87,19.75,14c1.56,7.24-4.52,53.1-5.92,63.43a3.84,3.84,0,0,1-2.19,3c-5.73,2.64-22.91,10.15-31.73,9.22-9.52-1-21.65-52.54-20.45-57.93,1.76-7.89,14.46-27.2,24.33-31.4S1005.05,296.57,1005.05,296.57Z"/><path class="cls-23" d="M992.71,270s6.17,23.53,9.7,24.94-9.7,21.76-17.45,21.2,3.88-19.24,3.88-19.24L981.09,273Z"/><path class="cls-24" d="M995.33,279.06c-1.91,7.47-4.47,10.95-7.68,14.19L981.09,273,992.71,270A61.82,61.82,0,0,0,995.33,279.06Z"/><path class="cls-23" d="M966.8,264.67c-2.76,9.27-2.18,19.73,3.15,22.71,5.53,3.09,17.23-.21,20.47-10.34,3.14-9.82,3.37-19.3-3.15-22.71S969.74,254.79,966.8,264.67Z"/><path class="cls-1" d="M873.49,261.25l9.64-27.57S843.57,202,822,198.57a56.53,56.53,0,0,0-22.76,1.18l-20,37.92s36.35,4.18,50.47,15.72,29,25.25,29,25.25S867.11,275,873.49,261.25Z"/><path class="cls-23" d="M884.31,267.83s-8-8.09-9.87-11.45-6.17-8.64-4.59-3.71,1.94,5.82,1.59,9.7a7.09,7.09,0,0,1-3.17,5.46l13,6.88Z"/><path class="cls-27" d="M986.72,296.89S930,294,924.67,291.6s-42.3-26.76-42.3-26.76-6,7.94-6.35,8.2,38.43,30.93,46.19,34.81,44.06,12.54,44.06,12.54-6.69,35.55-9.51,43.94-4.94,11.14-4.94,11.14,10.58,2.27,15.16-1.83,5.64-35.26,5.64-48.17S986.72,296.89,986.72,296.89Z"/><path class="cls-27" d="M1017.22,300.09s12.51,4.08,25,16.05,30.67,28.3,34.19,37.75,9.17,50.5,9.17,50.5-9.87,3.35-11.28,1.87-11.11-37.43-16-43.59-31.76-31.2-31.76-31.2l9.55,36.48s-13.29,8.69-22.33,4.26-13-16.12-19-30.37,10.25-45.27,10.25-45.27Z"/><path class="cls-28" d="M1000.47,290.34c.59.7,4.58,6.23,4.58,6.23s-8,16.59-11.57,19.57a9.91,9.91,0,0,1-8.17,1.81s-9.9-4.1-7.89-7.82a76.43,76.43,0,0,1,9.3-13.24l1.23-2.73.89,2.73a29.55,29.55,0,0,0-2.94,5.79c-1.29,3.4-1.06,12-1.65,13s1.65.24,3.06-4a49.28,49.28,0,0,0,1.76-10.45s6.23-3.53,8.35-6.11A22.17,22.17,0,0,0,1000.47,290.34Z"/><path class="cls-22" d="M798,227.63a1,1,0,0,1-.52-.14,1,1,0,0,1-.34-1.37l13.19-21.84a1,1,0,0,1,1.72,1l-13.2,21.84A1,1,0,0,1,798,227.63Z"/><path class="cls-22" d="M825.66,232.15a.94.94,0,0,1-.55-.17,1,1,0,0,1-.29-1.38L837,212a1,1,0,1,1,1.67,1.1L826.49,231.7A1,1,0,0,1,825.66,232.15Z"/><path class="cls-22" d="M842.68,239.28a.9.9,0,0,1-.28,0,1,1,0,0,1-.68-1.25c0-.15.14-.45,9.52-16.18a1,1,0,0,1,1.37-.35,1,1,0,0,1,.35,1.37c-3.57,6-9,15.09-9.35,15.84A1,1,0,0,1,842.68,239.28Z"/><path class="cls-22" d="M805.84,228.63a1,1,0,0,1-.5-.14,1,1,0,0,1-.36-1.37L817.88,205a1,1,0,0,1,1.37-.36,1,1,0,0,1,.36,1.37l-12.9,22.12A1,1,0,0,1,805.84,228.63Z"/><path class="cls-22" d="M821.12,230.19a1,1,0,0,1-.53-.15,1,1,0,0,1-.32-1.38c.44-.71,10.82-17.46,11.78-18.77a1,1,0,0,1,1.62,1.19c-.74,1-8,12.63-11.7,18.64A1,1,0,0,1,821.12,230.19Z"/><path class="cls-19" d="M829.89,250.32a1.2,1.2,0,0,1-1.18-1,1.21,1.21,0,0,1,1-1.39l5.66-1-5.29-10.85a1.2,1.2,0,1,1,2.16-1l6,12.29a1.2,1.2,0,0,1-.87,1.71l-7.24,1.25Z"/><path class="cls-22" d="M839.19,236.58a1,1,0,0,1-.86-1.52l9.11-15a1,1,0,1,1,1.71,1l-9.11,15A1,1,0,0,1,839.19,236.58Z"/><path class="cls-22" d="M855.3,252.15a1,1,0,0,1-.87-1.5L864.6,233a1,1,0,0,1,1.74,1l-10.17,17.61A1,1,0,0,1,855.3,252.15Z"/><path class="cls-22" d="M862.28,254.12a1,1,0,0,1-.49-.13,1,1,0,0,1-.38-1.36l8.65-15.33a1,1,0,0,1,1.36-.38,1,1,0,0,1,.38,1.36l-8.65,15.33A1,1,0,0,1,862.28,254.12Z"/><path class="cls-25" d="M965.22,260.08c4.76,9.69,26,9,25.88,10.34s3.91,20,8.67,19.92-4.44-39.08-4.44-39.08l-19.71.89Z"/><path class="cls-25" d="M1004.13,258c8-3.24,9.38-2,12,2.22s5.64,5.91,5.11,9.74.35,7.79-1.23,11.63-7,4.19-11.64,6.48-6.76-4.41-6.76-4.41Z"/><path class="cls-23" d="M988.44,271.51c-.7,2.91.34,5.65,2.33,6.13s4.16-1.48,4.87-4.38-.34-5.64-2.33-6.13S989.15,268.61,988.44,271.51Z"/><path class="cls-29" d="M305,577.23s2.57,9.92,11.3,12.42,17.25,7.37,5,7.52c-13.46.16-21.18-.47-26.78-1.41s-1.93-10.8-1-15.5S305,577.23,305,577.23Z"/><path class="cls-29" d="M233.8,569.17s-1.87,19.81,2.89,21.51,10.2,5.78,3.4,5.78-15.22,1.61-17.42-5.78c-2.69-9-8.76-10.53-6.59-15.12s8.7-13.11,8.7-13.11Z"/><path class="cls-30" d="M324.83,362.58,307.54,581.43s-9,4.15-15.46,4.78-19.86-104.88-18.72-121.75-11.7-70.44-8.73-87.8S324.83,362.58,324.83,362.58Z"/><path class="cls-29" d="M290.23,363.74c1.22-.17,2.45-.31,3.68-.44l29.87,11.56-5.51,64.55c-14.32,31.46-31.44,61.15-40,80.35-3.91-22.83-5.39-47.45-4.86-55.3.54-8.12-2.15-24.76-4.76-41.76Z"/><path class="cls-30" d="M316.3,395.65c-16.76,74.51-82.69,178.49-82.62,178.49s-12.32-2.14-12.94-7.77,7.07-74.95,23.83-91.26,17.9-93.76,17.9-93.76Z"/><path class="cls-31" d="M276.78,291.49c-18.85,19-30.95,51.57-31.11,59.64s21.74,22.47,21.74,22.47Z"/><polygon class="cls-23" points="297.99 249.65 290.53 286.8 310.95 308.78 313.66 263.73 297.99 249.65"/><path class="cls-2" d="M290.53,275.21s-9.63,3.38-20.35,30.6S252,400.07,252,400.07s20.6,17.49,50.08,17.48c18.8,0,28.28-4.22,28.28-4.22s1.88-63.21,0-86S299.83,274.64,290.53,275.21Z"/><path class="cls-31" d="M330.37,327.31c-1.87-22.81-30.54-52.67-39.84-52.1,0,0-4,1.41-9.7,9.67,9.62-4.68,21.62,3.49,32.83,29.93,5.61,13.22,11.57,32.25,17.51,36.4C331.09,341.75,330.86,333.19,330.37,327.31Z"/><path class="cls-24" d="M305.83,280.92c-6.06-7.07-8.31-17.87-9.15-24.75l1.18-5.87,1.52.6,14.28,12.83-1.39,23.18A36.58,36.58,0,0,1,305.83,280.92Z"/><path class="cls-23" d="M302.66,257.84c2.34,11.05,12.52,17.16,21,15.37s10.3-12.5,7.95-23.56-9.42-16.87-17.87-15.08S300.31,246.78,302.66,257.84Z"/><path class="cls-2" d="M293.41,266.82,287,277.63,320.92,303s-2.55-11.75-3.24-16.07S294,265.91,293.41,266.82Z"/><path class="cls-32" d="M333.57,227.06c14.24,4.48,2.6,22.43-2,22.59s-6.24-4.1-10-3.12-7.3-5.69-9.6-4.23-.83,15,0,17.32-2.92,2.51-2.92,2.51-1.53-9.6-3.9-9-4.12,7.31-7.52,9l-3.4,1.67s-2.09-14.49-5.22-17.27-1.17-12.37,3.28-14.25,5.52-10.44,11.66-11.06,11.15,3.54,19.29,2.5S329.59,225.81,333.57,227.06Z"/><path class="cls-23" d="M299.06,255.5c1.18,2.76,3.78,4.29,5.83,3.42s2.75-3.81,1.57-6.56-3.77-4.29-5.82-3.42S297.89,252.75,299.06,255.5Z"/><path class="cls-31" d="M283.6,295.43s34.94,38.85,47.52,50.87c.17,11.19.08,24.23-.09,35.82-6.81-3.35-25.75-13.16-36.53-23.55C281.19,345.73,275.25,316.3,283.6,295.43Z"/><path class="cls-21" d="M386.32,346.6c2.3-14.35,28.34-56.11,38.17-60.93,5.43-2.66,54.37,5.59,54.37,5.59s-55.52,48.2-62.66,74c-6.37,23.08-5.59,31.82-5.59,31.82l-22.43-16.4S382.85,368.19,386.32,346.6Z"/><path class="cls-23" d="M380.15,346.28s8.36-10.34,11.69-9.35a17.64,17.64,0,0,0,7.52,1c2.92-.16,3.13,4.06-1.05,11.65s-15.44,9.12-18.16,9S380.15,346.28,380.15,346.28Z"/><path class="cls-2" d="M287.5,286.91c-13.51,3.59-9.12,37.85-1.5,52,5.47,10.16,23.75,20.53,34.92,23.43s59.62-3.13,59.62-3.13,1.78-16-1.59-16-43.38-.93-54.12-10.64S303.82,282.57,287.5,286.91Z"/><path class="cls-21" d="M388.18,346c-3.6-2.31,4.73-15.6,4.73-15.6h9.6a62.78,62.78,0,0,1-7.61,7.31A26.57,26.57,0,0,0,388.18,346Z"/><path class="cls-22" d="M454.86,304.8l-.19,0-22.85-4.34a1,1,0,1,1,.37-2l22.86,4.34a1,1,0,0,1,.79,1.17A1,1,0,0,1,454.86,304.8Z"/><path class="cls-22" d="M443.43,317.23a1,1,0,0,1-.34-.06L425,310.52a1,1,0,1,1,.7-1.88l18.07,6.65a1,1,0,0,1-.35,1.94Z"/><path class="cls-22" d="M440.11,320.7a1,1,0,0,1-.34-.06c-5.49-2-16.12-5.84-17-6.11a1,1,0,0,1,.57-1.92c1.17.35,16.47,5.91,17.12,6.15a1,1,0,0,1-.34,1.94Z"/><path class="cls-22" d="M427.1,336a1.1,1.1,0,0,1-.4-.08c-5.44-2.31-14.44-6-15.42-6.24a1,1,0,0,1-.78-1.18,1,1,0,0,1,1.17-.78c1.48.29,13.43,5.35,15.82,6.36a1,1,0,0,1-.39,1.92Z"/><path class="cls-22" d="M425.36,339.22a1.07,1.07,0,0,1-.39-.07l-15.32-6.41a1,1,0,1,1,.77-1.85l15.33,6.41a1,1,0,0,1-.39,1.92Z"/><path class="cls-22" d="M458.43,301l-.19,0-24-4.53a1,1,0,0,1,.37-2l24,4.53a1,1,0,0,1-.18,2Z"/><path class="cls-22" d="M416,349.43a1,1,0,0,1-.38-.07l-11-4.54a1,1,0,0,1-.55-1.3,1,1,0,0,1,1.31-.55l11,4.53a1,1,0,0,1-.38,1.93Z"/><path class="cls-22" d="M413.89,354.16a.9.9,0,0,1-.42-.1l-10.22-4.72a1,1,0,1,1,.84-1.82l10.22,4.72a1,1,0,0,1-.42,1.92Z"/><path class="cls-22" d="M408.2,371.89a1.15,1.15,0,0,1-.41-.08l-14-6.27a1,1,0,0,1,.82-1.83l14,6.27a1,1,0,0,1-.41,1.91Z"/><path class="cls-22" d="M406.08,376.14a1,1,0,0,1-.41-.09c-12.7-5.63-13-5.81-13.06-5.87a1,1,0,0,1-.28-1.39,1,1,0,0,1,1.34-.31c.57.3,8,3.59,12.82,5.74a1,1,0,0,1,.51,1.32A1,1,0,0,1,406.08,376.14Z"/><path class="cls-19" d="M410.51,312.81a1.2,1.2,0,0,1-1.18-1.38l1-6.46a1.2,1.2,0,0,1,2.38.35L412,309.5l12.11-6a1.2,1.2,0,0,1,1.07,2.15l-14.17,7A1.26,1.26,0,0,1,410.51,312.81Z"/></g></g></svg>