<?xml version="1.0" encoding="utf-8"?>
<!-- Generator: Adobe Illustrator 23.0.0, SVG Export Plug-In . SVG Version: 6.00 Build 0)  -->
<svg version="1.1" id="Layer_1" xmlns="http://www.w3.org/2000/svg" xmlns:xlink="http://www.w3.org/1999/xlink" x="0px" y="0px"
	 viewBox="0 0 635.7 595.6" style="enable-background:new 0 0 635.7 595.6;" xml:space="preserve">
<style type="text/css">
	.st0{fill:#FFFFFF;}
	.st1{fill:#63ACC2;}
	.st2{opacity:0.7;fill:#9EC8FF;}
	.st3{opacity:0.8;}
	.st4{fill:#9EC8FF;}
	.st5{fill:#F37168;}
	.st6{opacity:0.7;}
	.st7{fill:#007D87;}
	.st8{fill:#9CD499;}
	.st9{fill:#74B570;}
	.st10{fill:#FACF50;}
	.st11{fill:#E0B03E;}
	.st12{fill:#3EDEAB;}
	.st13{opacity:0.57;fill:#0056D8;}
	.st14{opacity:0.76;fill:#0063D8;}
	.st15{fill:#00BFD8;}
	.st16{fill:#BFE6F2;}
	.st17{fill:#1C447A;}
	.st18{fill:#D54A41;}
	.st19{fill:#993341;}
	.st20{fill:#DBE5EB;}
	.st21{fill:#3E6BAB;}
	.st22{fill:#F09959;}
	.st23{fill:#E38540;}
	.st24{fill:#3A384D;}
	.st25{fill:#303C60;}
	.st26{fill:#394873;}
	.st27{fill:#F2F2F2;}
	.st28{fill:#0F2D5C;}
	.st29{fill:#0E3A82;}
	.st30{fill:#368DA8;}
	.st31{fill:#153F9C;}
</style>
<title>header-teamwork</title>
<g>
	<g>
		<rect x="811.2" y="11.2" class="st0" width="304.5" height="435.9"/>
		<g>
			<path class="st1" d="M1117.7,449H809.2V9.2h308.5V449z M813.2,445h300.5V13.2H813.2V445z"/>
		</g>
		<path class="st2" d="M1084.9,127.7H897.6c-2,0-3.6-1.6-3.6-3.6v-0.5c0-2,1.6-3.6,3.6-3.6h187.3c2,0,3.6,1.6,3.6,3.6v0.5
			C1088.6,126,1086.9,127.7,1084.9,127.7z"/>
		<path class="st2" d="M1084.9,141.6H897.6c-2,0-3.6-1.6-3.6-3.6v-0.5c0-2,1.6-3.6,3.6-3.6h187.3c2,0,3.6,1.6,3.6,3.6v0.5
			C1088.6,140,1086.9,141.6,1084.9,141.6z"/>
		<path class="st2" d="M1084.9,181.9H897.6c-2,0-3.6-1.6-3.6-3.6v-0.5c0-2,1.6-3.6,3.6-3.6h187.3c2,0,3.6,1.6,3.6,3.6v0.5
			C1088.6,180.2,1086.9,181.9,1084.9,181.9z"/>
		<path class="st2" d="M1084.9,195.8H897.6c-2,0-3.6-1.6-3.6-3.6v-0.5c0-2,1.6-3.6,3.6-3.6h187.3c2,0,3.6,1.6,3.6,3.6v0.5
			C1088.6,194.2,1086.9,195.8,1084.9,195.8z"/>
		<path class="st2" d="M1084.9,245.7H897.6c-2,0-3.6-1.6-3.6-3.6v-0.5c0-2,1.6-3.6,3.6-3.6h187.3c2,0,3.6,1.6,3.6,3.6v0.5
			C1088.6,244,1086.9,245.7,1084.9,245.7z"/>
		<path class="st2" d="M1084.9,259.6H897.6c-2,0-3.6-1.6-3.6-3.6v-0.5c0-2,1.6-3.6,3.6-3.6h187.3c2,0,3.6,1.6,3.6,3.6v0.5
			C1088.6,258,1086.9,259.6,1084.9,259.6z"/>
		<path class="st2" d="M1084.9,295.5H897.6c-2,0-3.6-1.6-3.6-3.6v-0.5c0-2,1.6-3.6,3.6-3.6h187.3c2,0,3.6,1.6,3.6,3.6v0.5
			C1088.6,293.9,1086.9,295.5,1084.9,295.5z"/>
		<path class="st2" d="M1084.9,309.4H897.6c-2,0-3.6-1.6-3.6-3.6v-0.5c0-2,1.6-3.6,3.6-3.6h187.3c2,0,3.6,1.6,3.6,3.6v0.5
			C1088.6,307.8,1086.9,309.4,1084.9,309.4z"/>
		<g>
			<g class="st3">
				<path class="st4" d="M857.7,146.8h-12.4c-5.4,0-9.8-4.4-9.8-9.8v-12.4c0-5.4,4.4-9.8,9.8-9.8h12.4c5.4,0,9.8,4.4,9.8,9.8V137
					C867.5,142.4,863.1,146.8,857.7,146.8z M845.3,120.4c-2.3,0-4.2,1.9-4.2,4.2V137c0,2.3,1.9,4.2,4.2,4.2h12.4
					c2.3,0,4.2-1.9,4.2-4.2v-12.4c0-2.3-1.9-4.2-4.2-4.2H845.3z"/>
			</g>
			<g class="st3">
				<path class="st4" d="M857.7,199.5h-12.4c-5.4,0-9.8-4.4-9.8-9.8v-12.4c0-5.4,4.4-9.8,9.8-9.8h12.4c5.4,0,9.8,4.4,9.8,9.8v12.4
					C867.5,195.2,863.1,199.5,857.7,199.5z M845.3,173.2c-2.3,0-4.2,1.9-4.2,4.2v12.4c0,2.3,1.9,4.2,4.2,4.2h12.4
					c2.3,0,4.2-1.9,4.2-4.2v-12.4c0-2.3-1.9-4.2-4.2-4.2H845.3z"/>
			</g>
			<g>
				<path class="st5" d="M852.2,192.2c0,0-0.1,0-0.1,0c-0.7,0-1.4-0.4-1.8-0.9l-8.9-11.6c-0.8-1.1-0.6-2.6,0.4-3.4
					c1.1-0.8,2.6-0.6,3.4,0.4l7.2,9.4l19.8-21.2c0.9-1,2.4-1,3.4-0.1c1,0.9,1,2.4,0.1,3.4L854,191.4
					C853.5,191.9,852.9,192.2,852.2,192.2z"/>
			</g>
			<g>
				<path class="st4" d="M857.7,261.7h-12.4c-5.2,0-9.4-4.2-9.4-9.4v-12.4c0-5.2,4.2-9.4,9.4-9.4h12.4c5.2,0,9.4,4.2,9.4,9.4v12.4
					C867.1,257.5,862.9,261.7,857.7,261.7z M845.3,235.3c-2.5,0-4.6,2.1-4.6,4.6v12.4c0,2.5,2.1,4.6,4.6,4.6h12.4
					c2.5,0,4.6-2.1,4.6-4.6v-12.4c0-2.5-2.1-4.6-4.6-4.6H845.3z"/>
			</g>
			<g class="st3">
				<path class="st4" d="M857.7,314.9h-12.4c-5.4,0-9.8-4.4-9.8-9.8v-12.4c0-5.4,4.4-9.8,9.8-9.8h12.4c5.4,0,9.8,4.4,9.8,9.8v12.4
					C867.5,310.5,863.1,314.9,857.7,314.9z M845.3,288.5c-2.3,0-4.2,1.9-4.2,4.2v12.4c0,2.3,1.9,4.2,4.2,4.2h12.4
					c2.3,0,4.2-1.9,4.2-4.2v-12.4c0-2.3-1.9-4.2-4.2-4.2H845.3z"/>
			</g>
		</g>
		<g class="st6">
			<path class="st1" d="M925.9,45L911,79.4h-7.9L888.3,45h8.6l10.5,24.6L918,45H925.9z"/>
			<path class="st1" d="M937.8,77.7c-2.9-1.5-5.1-3.7-6.7-6.4c-1.6-2.7-2.4-5.7-2.4-9.1c0-3.4,0.8-6.4,2.4-9.1
				c1.6-2.7,3.9-4.8,6.7-6.4c2.9-1.5,6.1-2.3,9.7-2.3c3.6,0,6.8,0.8,9.6,2.3c2.9,1.5,5.1,3.7,6.7,6.4c1.6,2.7,2.5,5.7,2.5,9.1
				c0,3.4-0.8,6.4-2.5,9.1c-1.6,2.7-3.9,4.8-6.7,6.4c-2.9,1.5-6.1,2.3-9.6,2.3C943.9,80,940.7,79.2,937.8,77.7z M953,71.8
				c1.6-0.9,2.9-2.2,3.9-3.9c0.9-1.7,1.4-3.6,1.4-5.7c0-2.1-0.5-4-1.4-5.7c-0.9-1.7-2.2-3-3.9-3.9c-1.6-0.9-3.5-1.4-5.5-1.4
				c-2,0-3.9,0.5-5.5,1.4c-1.6,0.9-2.9,2.2-3.9,3.9c-0.9,1.7-1.4,3.6-1.4,5.7c0,2.1,0.5,4,1.4,5.7c0.9,1.7,2.2,3,3.9,3.9
				c1.6,0.9,3.5,1.4,5.5,1.4C949.5,73.2,951.4,72.8,953,71.8z"/>
			<path class="st1" d="M981.5,51.5h-11V45h30v6.5h-11v27.9h-8V51.5z"/>
			<path class="st1" d="M1033.9,73v6.4h-26.7V45h26v6.4h-18.1v7.5h16v6.2h-16v8H1033.9z"/>
		</g>
	</g>
	<path class="st7" d="M806.4,609.5c0,0-83.8-89.1-51.5-95.3c32.3-6.3,66.2,74.6,69.3,66.2c3.1-8.4-22.6-98.7-8.1-100.8
		c14.4-2.1,38.5,102.6,38.5,102.6s3.4-54.6,29.7-66c26.3-11.4-6.3,91.5-6.3,91.5L806.4,609.5z"/>
	<g>
		<path class="st8" d="M1567.5,502.4c75.2-53,95.3-78.7,115.6-162.4c20.3-83.7,113.6-184.8,73.5-167.7
			c-40.2,17.1-109.5,91-106.7,162.6c2.8,71.7-7.6,92.3-19.4,108.7c-11.8,16.4-62.4,52.9-62.4,52.9L1567.5,502.4z"/>
		<path class="st9" d="M1614.3,466.6c0.3-0.2,0.5-0.5,0.8-0.7c4.5-6,27.5-36.9,32.9-52.8c6-17.6,1.2-63.1,19.7-96.2
			c18.5-33,27.2-64.3,36-88c11.7-31.3,45.4-55,62.6-56.5c-0.1-0.3-0.2-0.6-0.3-0.8l-4.3-1c-1.4,0.3-3.1,0.8-5.3,1.7
			c-40.2,17.1-109.5,91-106.7,162.6c2.8,71.7-7.6,92.3-19.4,108.7c-3.2,4.4-9.2,10.3-16.3,16.6L1614.3,466.6z"/>
	</g>
	<g>
		<path class="st8" d="M1668.3,394c21.7-85.7,252.4-177.1,231.4-150.4c-20.9,26.7-76.6,91-139.6,115.3c-63,24.3-87,59.6-102.2,102.8
			C1642.6,504.8,1646.6,479.7,1668.3,394z"/>
		<g>
			<path class="st9" d="M1631.1,496.4c-1.7,0-2.9-0.4-3-0.4c-0.6-0.2-1-0.9-0.8-1.5c0.2-0.6,0.9-1,1.5-0.8c0,0,3.6,1,6.2-0.7
				c1.6-1,2.6-2.9,3-5.5c2.6-16.8,8.3-29.7,13.3-41c3.1-6.9,5.8-12.9,7.3-18.8c2.1-8.4,8.3-23.3,19.2-39.6
				c13.4-20,30.8-37.5,50.4-50.7c23.1-15.5,39.4-24.3,62.1-36.5c22.4-12,50.2-27,96.7-54.8c0.6-0.3,1.3-0.2,1.6,0.4
				c0.3,0.6,0.2,1.3-0.4,1.6c-46.5,27.8-74.4,42.8-96.8,54.9c-22.6,12.1-38.9,20.9-61.9,36.4c-45.7,30.7-65.1,74.6-68.7,88.9
				c-1.5,6.1-4.4,12.4-7.4,19.2c-5,11.2-10.7,23.8-13.2,40.3c-0.5,3.3-1.9,5.8-4.1,7.2C1634.5,496.1,1632.6,496.4,1631.1,496.4z"/>
		</g>
		<g>
			<path class="st9" d="M1794.1,303.4c-2.3,0-3.7-0.1-3.8-0.1c-0.7,0-1.2-0.6-1.1-1.3c0-0.7,0.6-1.2,1.3-1.1
				c0.3,0,32.9,2.1,63.3-16.8c0.6-0.4,1.3-0.2,1.7,0.4c0.4,0.6,0.2,1.3-0.4,1.7c-16.2,10.1-32.9,14.2-44.1,15.9
				C1803.5,303.2,1797.6,303.4,1794.1,303.4z"/>
		</g>
		<g>
			<path class="st9" d="M1786.1,328.8c-20.8,0-33.2-4-33.4-4c-0.6-0.2-1-0.9-0.8-1.5c0.2-0.6,0.9-1,1.5-0.8
				c0.2,0.1,23.6,7.5,59.9,1.7c0.7-0.1,1.3,0.3,1.4,1c0.1,0.7-0.3,1.3-1,1.4C1803.4,328.2,1794.1,328.8,1786.1,328.8z"/>
		</g>
	</g>
	<path class="st7" d="M1011.7,607.7c0,0-76.8-78.5-66.4-93.4c17.8-25.6,93.8,63,93.8,63s-106.4-238.4-86.9-289.9
		c19.6-51.5,99.2,114.2,99.2,114.2s76.5-369.3,110.4-364.6c33.9,4.7,16.5,192.5,16.5,192.5l231-83.6c0,0,100.5-96.8,124.5-82.1
		c24,14.8-42.6,105.7-32.5,101.9c10.1-3.8,113.7-116.6,144.4-92.3c30.7,24.3-122.8,126.4-122.8,126.4L1625.8,546
		c0,0,82.8-179.5,175.2-160.8c47.4,9.6-97.4,141.1-97.4,141.1s90.7-66.2,126.3-46.8c35.7,19.4-99.1,68.9-81.4,76.2
		c17.7,7.3-38.1,43.3-38.1,43.3s44-26.9,63.5-15.8c19.5,11.1,13,26.2,13,26.2L1011.7,607.7z"/>
	<path class="st7" d="M1881.2,607.7c0,0,5.2-103.4,26.1-99.2c20.8,4.2-4.8,77.5,0,73.7c4.8-3.8,47.4-123.1,71.8-102.7
		c24.4,20.4-48.9,92.1-48.9,92.1s37.4-25.7,48.9-15.9c11.5,9.9-38.1,51.9-38.1,51.9H1881.2z"/>
	<g>
		<g>
			<path class="st8" d="M1022.9,520.5c-0.1-2-50.6-100.5-97.1-90.1c-46.5,10.4-53,24.6-85.1,31.1c-22.9,4.6-42,3.9-42,3.9
				s22.4,24.9,66.3,22.2c31-1.9,62.2-29.4,84.8-33.7c22.6-4.3,50.4,37.1,50.4,37.1l12.5,22.3L1022.9,520.5z"/>
			<g>
				<path class="st9" d="M1008.3,492c-0.4,0-0.7-0.2-1-0.5c-26.1-35.1-47.7-53.2-67.8-56.9c-17.7-3.2-32,5.2-47.1,14.1
					c-3.8,2.2-7.8,4.6-11.8,6.7c-35.1,18.6-56,16.3-56.8,16.2c-0.7-0.1-1.1-0.7-1-1.3c0.1-0.7,0.7-1.1,1.3-1c0.2,0,21.1,2.2,55.4-16
					c4-2.1,7.9-4.4,11.7-6.6c15.5-9.1,30.2-17.8,48.7-14.4c20.8,3.8,42.8,22.1,69.3,57.8c0.4,0.5,0.3,1.3-0.2,1.7
					C1008.8,491.9,1008.6,492,1008.3,492z"/>
			</g>
		</g>
		<g>
			<path class="st8" d="M1023.4,521.8c-35.9-114.3-85.2-165.8-157.7-194.2c-72.5-28.4-79.6-40.3-79.6-40.3s43.4,91.6,87,112.7
				c43.6,21.2,98.7,28.4,111.6,43c12.9,14.5,31.5,72.5,31.5,72.5l8,8.8L1023.4,521.8z"/>
			<g>
				<path class="st9" d="M1021.5,516.1c-0.5,0-1-0.4-1.2-0.9c0-0.2-5.1-18.9-16.4-42.7c-10.4-22-28.3-53-54.7-75.8
					c-26.2-22.6-49.5-32.7-72-42.5c-21.3-9.3-41.5-18.1-61.3-36.6c-0.5-0.5-0.5-1.2-0.1-1.7c0.5-0.5,1.2-0.5,1.7-0.1
					c19.4,18.3,39.4,27,60.6,36.2c22.7,9.9,46.2,20.1,72.6,42.9c26.8,23.1,44.9,54.4,55.3,76.6c11.3,24,16.4,42.9,16.5,43.1
					c0.2,0.6-0.2,1.3-0.9,1.5C1021.7,516.1,1021.6,516.1,1021.5,516.1z"/>
			</g>
			<g>
				<path class="st9" d="M903.9,366.1c-0.1,0-0.2,0-0.4-0.1c-0.3-0.1-27.4-8.4-58.9-3.2c-0.7,0.1-1.3-0.3-1.4-1
					c-0.1-0.7,0.3-1.3,1-1.4c32.1-5.3,59.7,3.2,60,3.3c0.6,0.2,1,0.9,0.8,1.5C904.9,365.8,904.4,366.1,903.9,366.1z"/>
			</g>
			<g>
				<path class="st9" d="M956.2,402.3c-0.3,0-0.5-0.1-0.8-0.3c-24.9-20.3-45.6-20.2-90-18c-0.7,0-1.2-0.5-1.3-1.1
					c0-0.7,0.5-1.2,1.1-1.3c45-2.2,66-2.3,91.6,18.5c0.5,0.4,0.6,1.2,0.2,1.7C956.9,402.2,956.5,402.3,956.2,402.3z"/>
			</g>
		</g>
	</g>
	<g>
		<path class="st10" d="M1308.4,63.2c10.4,6.6,30.1,29.3,42.6,42.6c12.6,13.2,19.4,20.6,19.4,20.6l-155-3.7c0,0,8.4-6.1,16-17.2
			c7.6-11.2,10.2-21.2,31.2-35.7C1283.9,55.2,1298.3,56.7,1308.4,63.2z"/>
		<path class="st11" d="M1280.7,68.5c7.6,0,12.4,29.2,16,35.7c3.6,6.4,22.6,7.6,22.6,7.6V99.6c0,0,3.5,9.1,5.9,14.8
			c6.8-4.3,15.8-9.5,24.6-10.2c0.8,0.4,16,16.2,16,16.2l-126.8,2.1c0,0-7.6-4-6.4-4s10.6-16,18.3-23S1280.7,68.5,1280.7,68.5z"/>
		<path class="st10" d="M1322.8,116.7c0,0,24.8-10.6,37.3-8.8c12.4,1.8,15.6,8.8,15.6,8.8H1322.8z"/>
	</g>
	<g>
		<g>
			<path class="st12" d="M1458.2,570.2v-87.9h-203.6v87.9h-66.2c-12.3,0-22.3,10-22.3,22.3v5.4c0,4,3.2,7.2,7.2,7.2h366
				c4,0,7.2-3.2,7.2-7.2v-5.4c0-12.3-10-22.3-22.3-22.3H1458.2z"/>
			<g>
				<polygon class="st13" points="1254.6,542.5 1458.2,526.8 1458.2,489.8 1254.6,492 				"/>
				<polygon class="st14" points="1458.2,555.8 1254.6,570.2 1458.2,570.2 				"/>
			</g>
			<g>
				<path class="st15" d="M1663.6,502.4h-614.5c-6,0-10.9-4.9-10.9-10.9V125.4c0-6,4.9-10.9,10.9-10.9h614.5c6,0,10.9,4.9,10.9,10.9
					v366.1C1674.5,497.5,1669.7,502.4,1663.6,502.4z"/>
				<path class="st16" d="M1646.9,463.1h-580.9c-5.4,0-9.8-4.4-9.8-9.8V140.1c0-5.4,4.4-9.8,9.8-9.8h580.9c5.4,0,9.8,4.4,9.8,9.8
					v313.2C1656.7,458.7,1652.3,463.1,1646.9,463.1z"/>
			</g>
			<path class="st17" d="M1378.6,489.8h-44.5c-2.4,0-4.4-2-4.4-4.4V484c0-2.4,2-4.4,4.4-4.4h44.5c2.4,0,4.4,2,4.4,4.4v1.3
				C1383.1,487.8,1381.1,489.8,1378.6,489.8z"/>
		</g>
		<g>
			<path class="st0" d="M1547.5,329.5c-5.3-0.1-10.5,0.1-15.6,0.6c0.3-3,0.5-6.1,0.5-9.2c1-71.8-66.7-131-151.3-132.2
				c-69.4-1-128.5,37.3-148.2,90.7c-14.5-5.9-30.7-9.2-47.8-9.5c-64.5-0.9-117.4,43.1-118.2,98.4S1117.8,469,1182.3,470
				c43.6,0.6,325.7-0.9,363.3-0.3c54.8,0.8,99.7-31.9,100.2-69.9C1646.3,361.7,1602.3,330.3,1547.5,329.5z"/>
			<path class="st7" d="M1378.5,196.6c0.8,0,1.7,0,2.5,0c19.8,0.3,38.9,3.8,56.8,10.6c17.2,6.5,32.7,15.6,45.8,27.1
				c13.1,11.4,23.3,24.6,30.3,39.2c7.2,15,10.8,30.9,10.5,47.2c0,2.8-0.2,5.7-0.5,8.6l-0.9,9.7l9.7-0.9c4.2-0.4,8.5-0.6,12.8-0.6
				c0.6,0,1.3,0,1.9,0c12.6,0.2,24.8,2.1,36.3,5.6c10.9,3.4,20.7,8.1,29,14.1c16.4,11.7,25.2,26.8,25,42.5
				c-0.1,7.8-2.4,15.4-6.8,22.7c-4.5,7.4-10.8,14.1-18.9,19.9c-8.3,6-18,10.7-28.8,14.1c-11.3,3.5-23.3,5.3-35.7,5.3
				c-0.6,0-1.2,0-1.8,0c-5.7-0.1-17.1-0.1-34.8-0.1c-33.3,0-83,0.1-135.7,0.3c-54.2,0.2-110.2,0.3-148.7,0.3
				c-22.3,0-36.7-0.1-44-0.2c-14.8-0.2-29.2-2.9-42.6-8c-12.9-4.9-24.5-11.8-34.3-20.5c-9.8-8.6-17.4-18.6-22.6-29.6
				c-5.4-11.3-8-23.2-7.8-35.5c0.3-24.1,11.6-46.7,31.7-63.7c9.9-8.4,21.5-15,34.3-19.6c13.3-4.8,27.5-7.2,42.1-7.2
				c0.6,0,1.3,0,1.9,0c15.7,0.2,30.8,3.2,44.9,8.9l7.7,3.1l2.9-7.8c4.5-12.2,11.2-23.6,19.9-34c8.7-10.4,19.2-19.5,31.3-27.1
				c12.2-7.7,25.8-13.8,40.2-17.9C1346.8,198.8,1362.5,196.6,1378.5,196.6C1378.5,196.6,1378.5,196.6,1378.5,196.6z M1378.5,188.6
				c-68.2,0-126.1,38-145.5,90.7c-14.5-5.9-30.7-9.2-47.8-9.5c-0.7,0-1.3,0-2,0c-63.6,0-115.4,43.7-116.2,98.4
				c-0.8,55.2,50.8,100.8,115.3,101.7c7.9,0.1,23.5,0.2,44.1,0.2c75.2,0,216.2-0.6,284.4-0.6c16.5,0,28.7,0,34.7,0.1
				c0.6,0,1.3,0,1.9,0c53.9,0,97.8-32.3,98.3-69.9c0.5-38-43.4-69.5-98.3-70.3c-0.7,0-1.4,0-2.1,0c-4.6,0-9.1,0.2-13.5,0.6
				c0.3-3,0.5-6.1,0.5-9.2c1-71.8-66.7-131-151.3-132.2C1380.2,188.6,1379.4,188.6,1378.5,188.6L1378.5,188.6z"/>
		</g>
		<g>
			<polygon class="st5" points="1501.4,463.1 1202.5,463.1 1202.5,343 1282.5,315.1 1416.3,315.1 1501.4,343 			"/>
			<polygon class="st18" points="1282.5,315.1 1202.5,343 1501.4,343 1416.3,315.1 			"/>
			<polygon class="st5" points="1409.3,332.6 1292.8,332.6 1313.7,321.3 1388.4,321.3 			"/>
			<g>
				<path class="st19" d="M1392.1,328.2h-80.9c-0.7,0-1.2-0.5-1.2-1.2c0-0.7,0.5-1.2,1.2-1.2h80.9c0.7,0,1.2,0.5,1.2,1.2
					C1393.3,327.6,1392.7,328.2,1392.1,328.2z"/>
			</g>
			<path class="st18" d="M1423.6,433.8h-146.2c-5.4,0-9.8-4.4-9.8-9.8v-25.2c0-5.4,4.4-9.8,9.8-9.8h146.2c5.4,0,9.8,4.4,9.8,9.8V424
				C1433.3,429.4,1428.9,433.8,1423.6,433.8z"/>
		</g>
	</g>
	<g>
		<g>
			<path class="st20" d="M1299.8,220c4.2-6.5,43.8-18.1,46.6-17.8c2.8,0.3,23.3,46.3,27.6,64.4c4.3,18.1,4.9,20.9,4.9,20.9
				s-45.7,15-54.2,16.4c-8.5,1.4-8.5,1.4-8.5,1.4s-4.2-40.7-8.5-55.6C1303.5,234.7,1299.8,220,1299.8,220z"/>
			<g>
				<path class="st21" d="M1329.4,286.5c-0.4,0-0.8-0.3-1-0.7c-0.1-0.5,0.2-1.1,0.7-1.2l26.3-7.3c0.5-0.2,1.1,0.2,1.2,0.7
					c0.1,0.5-0.2,1.1-0.7,1.2l-26.3,7.3C1329.6,286.5,1329.5,286.5,1329.4,286.5z"/>
			</g>
			<g>
				<path class="st21" d="M1328,282.8c-0.4,0-0.8-0.3-1-0.7c-0.2-0.5,0.2-1.1,0.7-1.2l25.4-7.3c0.5-0.2,1.1,0.2,1.2,0.7
					c0.2,0.5-0.2,1.1-0.7,1.2l-25.4,7.3C1328.2,282.8,1328.1,282.8,1328,282.8z"/>
			</g>
			<g>
				<path class="st21" d="M1323.2,267.6c-0.4,0-0.8-0.3-1-0.7c-0.1-0.5,0.2-1.1,0.7-1.2l23.7-6.5c0.5-0.1,1.1,0.2,1.2,0.7
					c0.1,0.5-0.2,1.1-0.7,1.2l-23.7,6.5C1323.4,267.6,1323.3,267.6,1323.2,267.6z"/>
			</g>
			<g>
				<path class="st21" d="M1323.2,264.3c-0.4,0-0.8-0.3-1-0.7c-0.1-0.5,0.2-1.1,0.7-1.2l23.7-6.6c0.5-0.1,1.1,0.2,1.2,0.7
					c0.1,0.5-0.2,1.1-0.7,1.2l-23.7,6.6C1323.4,264.3,1323.3,264.3,1323.2,264.3z"/>
			</g>
			<g>
				<path class="st21" d="M1317.9,251.2c-0.4,0-0.8-0.3-1-0.7c-0.2-0.5,0.1-1.1,0.7-1.2l22.9-6.8c0.5-0.2,1.1,0.1,1.2,0.7
					c0.2,0.5-0.1,1.1-0.7,1.2l-22.9,6.8C1318.1,251.2,1318,251.2,1317.9,251.2z"/>
			</g>
			<g>
				<path class="st21" d="M1317.9,247.8c-0.3,0-0.5-0.1-0.7-0.3c-0.4-0.4-0.4-1,0-1.4c0.2-0.2,0.7-0.7,21.9-6.7
					c0.5-0.2,1.1,0.2,1.2,0.7c0.2,0.5-0.2,1.1-0.7,1.2c-7.6,2.1-19.9,5.7-21.1,6.3C1318.3,247.8,1318.1,247.8,1317.9,247.8z"/>
			</g>
			<g>
				<path class="st18" d="M1355.7,264.5c-0.1,0-0.2,0-0.3,0c-0.6-0.2-1-0.8-0.9-1.5l2.7-10.8c0.1-0.4,0.4-0.7,0.8-0.9
					c0.4-0.1,0.8,0,1.2,0.3l4.7,4.2c0.5,0.4,0.5,1.2,0.1,1.7c-0.4,0.5-1.2,0.5-1.7,0.1l-3.2-2.9l-2.2,8.9
					C1356.7,264.2,1356.2,264.5,1355.7,264.5z"/>
			</g>
		</g>
		<path class="st22" d="M1322.9,39.1L1301.8,59c-5.5,4.3-6.1,7.5-5.1,14.4c1.3,8.5,3.4,15,6.9,15c6,0,5.5-16.7,5.5-16.7l20.5-20.6
			L1322.9,39.1z"/>
		<path class="st23" d="M1322.9,39.1l-6.2,4.9c-2.7,8.1-3.8,17.4-3.5,23.7l16.5-16.6L1322.9,39.1z"/>
		<path class="st22" d="M1345,58.9c-4.4,8.6-12,15.8-18,14.3c-6.1-1.6-12.3-12-7.7-21.6c4.5-9.3,10.9-16.3,18-14.3
			C1344.4,39.3,1349.6,49.7,1345,58.9z"/>
		<path class="st22" d="M1309.5,184.8c7.2,10.9,13.9,18.7,16,27c2.1,8.3-3.5,21.1-6.8,16.8c-3.3-4.3-7.9-5.4-8.9-17.4
			c-1.3-15-6.7-17-6.7-17L1309.5,184.8z"/>
		<path class="st10" d="M1282.7,65.8c8,3.9,8.4,69.6,20.8,98c12.4,28.4,12.7,28.6,12.7,28.6s-10.7,6.3-13,7.4
			c-2.3,1.1-29.4-34-34.5-53.6c-9.2-35.5-18.2-41.1-28.4-42.7c1.8-5.2,11.6-17.4,23.2-27.4S1282.7,65.8,1282.7,65.8z"/>
		<path class="st22" d="M1345.1,114.5c0,0,7.3-5.5,13.8-4.7c6.4,0.8,19,6.6,16.4,8.6s-9.8,2.2-14.2,0
			C1356.7,116.1,1346.1,113.5,1345.1,114.5z"/>
		<path class="st24" d="M1307,54.1c9.2-0.7,13.7-7.4,14.5-8.4c0.8-1,1.3,8,3.1,8.7c1.8,0.6,3.8-4.3,6-8.5c2.2-4.2,5.1-3.8,5.4,0
			c0.3,3.8,2.9,15.3,9.1,17.9c5,2.1,9.3,2.9,9.3,2.9s-1.5-8.1-0.9-15c0.9-11.3-8.9-21-16.7-22.3c-6.2-1.1-16.9-0.2-21.4,8.5
			C1311.1,46.3,1307,54.1,1307,54.1z"/>
		<path class="st22" d="M1325,48.9c-0.9,2.7-3.2,4.4-5.1,3.8c-1.9-0.6-2.7-3.3-1.8-6c0.9-2.7,3.2-4.4,5.1-3.8
			C1325,43.5,1325.8,46.2,1325,48.9z"/>
	</g>
	<g>
		<path class="st24" d="M1742.2,252.7c-5.3-4.1-31.1,6.3-31.6,15.9c-0.5,9.5,7.1,29.8,23.6,31.3c16.5,1.4,18.5-0.4,19.9-13.5
			C1755.5,273.3,1749.5,258.3,1742.2,252.7z"/>
		<path class="st25" d="M1813.3,574.8c0,0,11.8,4.9,9.9,7.4c-1.9,2.5,3.8,16.8,3.8,16.8h-2.4l-4.5-9.2c0,0,1.9,11.2-2.1,12.9
			c-4,1.7-17.9,5.7-16.9,2.4c0.5-1.7,3.8-5.9,3.8-5.9L1813.3,574.8z"/>
		<path class="st22" d="M1805.8,576.9c2,5.7,0.2,21.4-2.7,24.5c-2.8,3.1,8.7,0.2,10.8-2.6s1.6-21.2,1.6-21.2L1805.8,576.9z"/>
		<path class="st25" d="M1677.9,577.2c0,0,8,9.8,5.2,11.2c-2.8,1.3-4.7,16.6-4.7,16.6l-2.1-1.1l0.4-10.2c0,0-3.6,10.7-8,10.3
			c-4.3-0.4-19.8-1.3-16.1-5.9c1.1-1.4,5.8-3.1,5.8-3.1L1677.9,577.2z"/>
		<path class="st22" d="M1670.3,575.5c-0.9,6-10,18.9-13.9,20.3c-3.9,1.4,7.5,4.3,10.7,2.9c3.2-1.5,11.5-17.9,11.5-17.9
			L1670.3,575.5z"/>
		<path class="st22" d="M1732.4,395.4c0,0,16.6,83.5,25,102.1c6.4,14.1,47.2,83.9,52.5,82.8c5.3-1.1,5.6-2.8,5.6-2.8
			s-15.6-55.6-23.9-67c-13-17.9-9.9-22.6-10.2-56.1c-0.4-33.5,0-34.1-8.8-54.2c-8.8-20.1-8.8-20.1-8.8-20.1L1732.4,395.4z"/>
		<path class="st22" d="M1732.4,388.5c0,0-38.7,90.7-41.4,100.2c-2.7,9.5-21.4,90.3-21.4,90.3s4.3,3.7,7.6,3.2s32.6-56.1,33.3-74.1
			c0.8-18,36.2-55.3,40.5-71.2C1755.3,421,1732.4,388.5,1732.4,388.5z"/>
		<path class="st5" d="M1808.8,430.5c0,0,5.5,45.5,5.1,58.7c-0.4,13.2,0,14.8,0,14.8l49-7.6c0,0-6.5-24.4-9-30.7
			C1851.4,459.4,1808.8,430.5,1808.8,430.5z"/>
		<path class="st0" d="M1810.2,432.2c0,0,2.7,20.4,5.4,41.9c2.7,21.5,2.9,26.8,2.9,26.8l44.4-6L1810.2,432.2z"/>
		<path class="st5" d="M1833.1,429c-2.3,0.6-26.1,0-26.1,0s10,32.9,16,68.5c25.6-2.7,46.2-3.5,46.2-3.5s-11.1-36-16.7-48.3
			c-5.7-12.3-8.1-16.7-8.1-16.7H1833.1z"/>
		<path class="st22" d="M1831,411.6c0,0,5.6,9.7,6.7,16.3c1.1,6.5-0.4,19.4-3.3,19.4c-3,0-3.2-1.1-5.1-8.1c-1.9-7-3-9.7-3-9.7h-4.2
			v-18.7L1831,411.6z"/>
		<path class="st26" d="M1765.7,383.5c0.9,1.2,15.8,25.9,18.2,47.8c2.4,21.9,1.9,58.8,1.9,58.8l-11.8,2.4l-7-47.9l-3.1,47.9
			c0,0-13.2,4.7-31.5,1.2c-18.3-3.5-38.5-16-38.5-16l35.7-86L1765.7,383.5z"/>
		<path class="st27" d="M1752.5,305.7c0,0,18,5.9,19.7,14c1.6,7.2-4.5,53.1-5.9,63.4c-0.2,1.3-1,2.4-2.2,3
			c-5.7,2.6-22.9,10.2-31.7,9.2c-9.5-1-21.7-52.5-20.4-57.9c1.8-7.9,14.5-27.2,24.3-31.4C1746.2,301.9,1752.5,305.7,1752.5,305.7z"
			/>
		<path class="st22" d="M1740.2,279.2c0,0,6.2,23.5,9.7,24.9c3.5,1.4-9.7,21.8-17.5,21.2c-7.8-0.6,3.9-19.2,3.9-19.2l-7.8-23.8
			L1740.2,279.2z"/>
		<path class="st23" d="M1742.8,288.2c-1.9,7.5-4.5,10.9-7.7,14.2l-6.6-20.2l11.6-3C1740.2,279.2,1741.1,283.8,1742.8,288.2z"/>
		<path class="st22" d="M1714.3,273.8c-2.8,9.3-2.2,19.7,3.2,22.7c5.5,3.1,17.2-0.2,20.5-10.3c3.1-9.8,3.4-19.3-3.2-22.7
			C1728.2,260.1,1717.2,264,1714.3,273.8z"/>
		<path class="st0" d="M1621,270.4l9.6-27.6c0,0-39.6-31.7-61.1-35.1c-12.3-2-22.8,1.2-22.8,1.2l-20,37.9c0,0,36.3,4.2,50.5,15.7
			c14.1,11.5,29,25.2,29,25.2S1614.6,284.2,1621,270.4z"/>
		<path class="st22" d="M1631.8,277c0,0-8-8.1-9.9-11.5c-1.9-3.4-6.2-8.6-4.6-3.7c1.6,4.9,1.9,5.8,1.6,9.7c-0.4,3.9-3.2,5.5-3.2,5.5
			l13,6.9L1631.8,277z"/>
		<path class="st26" d="M1734.2,306.1c0,0-56.8-2.9-62-5.3c-5.3-2.4-42.3-26.8-42.3-26.8s-6,7.9-6.3,8.2
			c-0.4,0.3,38.4,30.9,46.2,34.8c7.8,3.9,44.1,12.5,44.1,12.5s-6.7,35.5-9.5,43.9c-2.8,8.4-4.9,11.1-4.9,11.1s10.6,2.3,15.2-1.8
			c4.6-4.1,5.6-35.3,5.6-48.2C1720.1,321.7,1734.2,306.1,1734.2,306.1z"/>
		<path class="st26" d="M1764.7,309.3c0,0,12.5,4.1,25,16.1c12.5,12,30.7,28.3,34.2,37.7c3.5,9.4,9.2,50.5,9.2,50.5
			s-9.9,3.3-11.3,1.9c-1.4-1.5-11.1-37.4-16-43.6c-4.9-6.2-31.8-31.2-31.8-31.2l9.6,36.5c0,0-13.3,8.7-22.3,4.3
			c-9-4.4-13-16.1-18.9-30.4c-6-14.3,10.3-45.3,10.3-45.3L1764.7,309.3z"/>
		<path class="st27" d="M1747.9,299.5c0.6,0.7,4.6,6.2,4.6,6.2s-8,16.6-11.6,19.6c-3.6,3-8.2,1.8-8.2,1.8s-9.9-4.1-7.9-7.8
			c4-7.4,9.3-13.2,9.3-13.2l1.2-2.7l0.9,2.7c0,0-1.6,2.4-2.9,5.8c-1.3,3.4-1.1,12-1.6,13c-0.6,1.1,1.6,0.2,3.1-4
			c1.4-4.2,1.8-10.5,1.8-10.5s6.2-3.5,8.3-6.1C1747,301.7,1747.9,299.5,1747.9,299.5z"/>
		<g>
			<g>
				<path class="st21" d="M1545.5,236.8c-0.2,0-0.4,0-0.5-0.1c-0.5-0.3-0.6-0.9-0.3-1.4l13.2-21.8c0.3-0.5,0.9-0.6,1.4-0.3
					c0.5,0.3,0.6,0.9,0.3,1.4l-13.2,21.8C1546.1,236.6,1545.8,236.8,1545.5,236.8z"/>
			</g>
			<g>
				<path class="st21" d="M1573.1,241.3c-0.2,0-0.4-0.1-0.5-0.2c-0.5-0.3-0.6-0.9-0.3-1.4l12.2-18.6c0.3-0.5,0.9-0.6,1.4-0.3
					c0.5,0.3,0.6,0.9,0.3,1.4l-12.2,18.6C1573.8,241.2,1573.5,241.3,1573.1,241.3z"/>
			</g>
			<g>
				<path class="st21" d="M1590.2,248.5c-0.1,0-0.2,0-0.3,0c-0.5-0.2-0.8-0.7-0.7-1.2c0-0.1,0.1-0.5,9.5-16.2
					c0.3-0.5,0.9-0.6,1.4-0.3c0.5,0.3,0.6,0.9,0.3,1.4c-3.6,6-9,15.1-9.4,15.8C1590.9,248.2,1590.6,248.5,1590.2,248.5z"/>
			</g>
			<g>
				<path class="st21" d="M1553.3,237.8c-0.2,0-0.3,0-0.5-0.1c-0.5-0.3-0.6-0.9-0.4-1.4l12.9-22.1c0.3-0.5,0.9-0.6,1.4-0.4
					c0.5,0.3,0.6,0.9,0.4,1.4l-12.9,22.1C1554,237.6,1553.7,237.8,1553.3,237.8z"/>
			</g>
			<g>
				<path class="st21" d="M1568.6,239.4c-0.2,0-0.4,0-0.5-0.2c-0.5-0.3-0.6-0.9-0.3-1.4c0.4-0.7,10.8-17.5,11.8-18.8
					c0.3-0.4,1-0.5,1.4-0.2c0.4,0.3,0.5,1,0.2,1.4c-0.7,1-8,12.6-11.7,18.6C1569.3,239.2,1568.9,239.4,1568.6,239.4z"/>
			</g>
			<g>
				<path class="st18" d="M1577.4,259.5c-0.6,0-1.1-0.4-1.2-1c-0.1-0.7,0.3-1.3,1-1.4l5.7-1l-5.3-10.9c-0.3-0.6,0-1.3,0.6-1.6
					c0.6-0.3,1.3,0,1.6,0.6l6,12.3c0.2,0.3,0.2,0.7,0,1.1c-0.2,0.3-0.5,0.6-0.9,0.6l-7.2,1.3
					C1577.5,259.5,1577.4,259.5,1577.4,259.5z"/>
			</g>
			<g>
				<path class="st21" d="M1586.7,245.7c-0.2,0-0.4,0-0.5-0.1c-0.5-0.3-0.6-0.9-0.3-1.4l9.1-15c0.3-0.5,0.9-0.6,1.4-0.3
					c0.5,0.3,0.6,0.9,0.3,1.4l-9.1,15C1587.3,245.6,1587,245.7,1586.7,245.7z"/>
			</g>
			<g>
				<path class="st21" d="M1602.8,261.3c-0.2,0-0.3,0-0.5-0.1c-0.5-0.3-0.6-0.9-0.4-1.4l10.2-17.6c0.3-0.5,0.9-0.6,1.4-0.4
					c0.5,0.3,0.6,0.9,0.4,1.4l-10.2,17.6C1603.5,261.1,1603.1,261.3,1602.8,261.3z"/>
			</g>
			<g>
				<path class="st21" d="M1609.8,263.3c-0.2,0-0.3,0-0.5-0.1c-0.5-0.3-0.7-0.9-0.4-1.4l8.7-15.3c0.3-0.5,0.9-0.7,1.4-0.4
					c0.5,0.3,0.7,0.9,0.4,1.4l-8.7,15.3C1610.4,263.1,1610.1,263.3,1609.8,263.3z"/>
			</g>
		</g>
		<path class="st24" d="M1712.7,269.2c4.8,9.7,26,9,25.9,10.3c-0.2,1.3,3.9,20,8.7,19.9c4.8-0.1-4.4-39.1-4.4-39.1l-19.7,0.9
			L1712.7,269.2z"/>
		<path class="st24" d="M1751.6,267.2c8-3.2,9.4-2,12,2.2c2.6,4.2,5.6,5.9,5.1,9.7s0.4,7.8-1.2,11.6c-1.6,3.8-7.1,4.2-11.6,6.5
			c-4.6,2.3-6.8-4.4-6.8-4.4L1751.6,267.2z"/>
		<path class="st22" d="M1735.9,280.7c-0.7,2.9,0.3,5.6,2.3,6.1c2,0.5,4.2-1.5,4.9-4.4c0.7-2.9-0.3-5.6-2.3-6.1
			C1738.8,275.8,1736.6,277.8,1735.9,280.7z"/>
	</g>
	<g>
		<path class="st28" d="M1052.5,586.4c0,0,2.6,9.9,11.3,12.4c8.7,2.5,17.3,7.4,5,7.5c-13.5,0.2-21.2-0.5-26.8-1.4
			c-5.6-0.9-1.9-10.8-1-15.5C1041.8,584.7,1052.5,586.4,1052.5,586.4z"/>
		<path class="st28" d="M981.3,578.3c0,0-1.9,19.8,2.9,21.5c4.8,1.7,10.2,5.8,3.4,5.8c-6.8,0-15.2,1.6-17.4-5.8
			c-2.7-9-8.8-10.5-6.6-15.1c2.2-4.6,8.7-13.1,8.7-13.1L981.3,578.3z"/>
		<path class="st29" d="M1072.3,371.8L1055,590.6c0,0-9,4.2-15.5,4.8c-6.5,0.6-19.9-104.9-18.7-121.7c1.1-16.9-11.7-70.4-8.7-87.8
			C1015.1,368.5,1072.3,371.8,1072.3,371.8z"/>
		<path class="st28" d="M1037.7,372.9c1.2-0.2,2.4-0.3,3.7-0.4l29.9,11.6l-5.5,64.6c-14.3,31.5-31.4,61.2-40,80.3
			c-3.9-22.8-5.4-47.4-4.9-55.3c0.5-8.1-2.1-24.8-4.8-41.8L1037.7,372.9z"/>
		<path class="st29" d="M1063.8,404.8c-16.8,74.5-82.7,178.5-82.6,178.5s-12.3-2.1-12.9-7.8c-0.6-5.6,7.1-74.9,23.8-91.3
			c16.8-16.3,17.9-93.8,17.9-93.8L1063.8,404.8z"/>
		<path class="st30" d="M1024.3,300.7c-18.9,19-30.9,51.6-31.1,59.6c-0.2,8.1,21.7,22.5,21.7,22.5L1024.3,300.7z"/>
		<polygon class="st22" points="1045.5,258.8 1038,296 1058.4,318 1061.1,272.9 		"/>
		<path class="st1" d="M1038,284.4c0,0-9.6,3.4-20.3,30.6c-10.7,27.2-18.2,94.3-18.2,94.3s20.6,17.5,50.1,17.5
			c18.8,0,28.3-4.2,28.3-4.2s1.9-63.2,0-86C1076,313.7,1047.3,283.8,1038,284.4z"/>
		<path class="st30" d="M1077.8,336.5c-1.9-22.8-30.5-52.7-39.8-52.1c0,0-4,1.4-9.7,9.7c9.6-4.7,21.6,3.5,32.8,29.9
			c5.6,13.2,11.6,32.3,17.5,36.4C1078.6,350.9,1078.3,342.4,1077.8,336.5z"/>
		<path class="st23" d="M1053.3,290.1c-6.1-7.1-8.3-17.9-9.2-24.7l1.2-5.9l1.5,0.6l14.3,12.8l-1.4,23.2
			C1057.7,294.7,1055.6,292.7,1053.3,290.1z"/>
		<path class="st22" d="M1050.1,267c2.3,11.1,12.5,17.2,21,15.4c8.5-1.8,10.3-12.5,8-23.6c-2.3-11.1-9.4-16.9-17.9-15.1
			C1052.7,245.5,1047.8,255.9,1050.1,267z"/>
		<path class="st1" d="M1040.9,276l-6.4,10.8l33.9,25.3c0,0-2.6-11.7-3.2-16.1C1064.5,291.8,1041.4,275.1,1040.9,276z"/>
		<path class="st31" d="M1081,236.2c14.2,4.5,2.6,22.4-2,22.6c-4.6,0.2-6.2-4.1-10-3.1c-3.8,1-7.3-5.7-9.6-4.2
			c-2.3,1.5-0.8,15,0,17.3c0.8,2.3-2.9,2.5-2.9,2.5s-1.5-9.6-3.9-9c-2.4,0.6-4.1,7.3-7.5,9c-3.4,1.7-3.4,1.7-3.4,1.7
			s-2.1-14.5-5.2-17.3c-3.1-2.8-1.2-12.4,3.3-14.3c4.4-1.9,5.5-10.4,11.7-11.1c6.1-0.6,11.2,3.5,19.3,2.5
			C1078.9,231.8,1077.1,235,1081,236.2z"/>
		<path class="st22" d="M1046.5,264.7c1.2,2.8,3.8,4.3,5.8,3.4c2-0.9,2.7-3.8,1.6-6.6c-1.2-2.8-3.8-4.3-5.8-3.4
			C1046.1,259,1045.4,261.9,1046.5,264.7z"/>
		<path class="st30" d="M1031.1,304.6c0,0,34.9,38.9,47.5,50.9c0.2,11.2,0.1,24.2-0.1,35.8c-6.8-3.4-25.8-13.2-36.5-23.6
			C1028.7,354.9,1022.7,325.5,1031.1,304.6z"/>
		<path class="st20" d="M1133.8,355.8c2.3-14.3,28.3-56.1,38.2-60.9c5.4-2.7,54.4,5.6,54.4,5.6s-55.5,48.2-62.7,74
			c-6.4,23.1-5.6,31.8-5.6,31.8l-22.4-16.4C1135.7,389.9,1130.3,377.4,1133.8,355.8z"/>
		<path class="st22" d="M1127.6,355.5c0,0,8.4-10.3,11.7-9.4c3.3,1,4.6,1.2,7.5,1c2.9-0.2,3.1,4.1-1,11.7c-4.2,7.6-15.4,9.1-18.2,9
			C1124.9,367.6,1127.6,355.5,1127.6,355.5z"/>
		<path class="st1" d="M1035,296.1c-13.5,3.6-9.1,37.8-1.5,52c5.5,10.2,23.8,20.5,34.9,23.4c11.2,2.9,59.6-3.1,59.6-3.1
			s1.8-16-1.6-16c-3.4,0-43.4-0.9-54.1-10.6C1061.6,332,1051.3,291.7,1035,296.1z"/>
		<g>
			<path class="st20" d="M1135.7,355.2c-3.6-2.3,4.7-15.6,4.7-15.6h9.6c0,0-3.1,3.6-7.6,7.3C1137.8,350.6,1135.7,355.2,1135.7,355.2
				z"/>
			<g>
				<path class="st21" d="M1202.3,314c-0.1,0-0.1,0-0.2,0l-22.9-4.3c-0.5-0.1-0.9-0.6-0.8-1.2c0.1-0.5,0.6-0.9,1.2-0.8l22.9,4.3
					c0.5,0.1,0.9,0.6,0.8,1.2C1203.2,313.6,1202.8,314,1202.3,314z"/>
			</g>
			<g>
				<path class="st21" d="M1190.9,326.4c-0.1,0-0.2,0-0.3-0.1l-18.1-6.7c-0.5-0.2-0.8-0.8-0.6-1.3c0.2-0.5,0.8-0.8,1.3-0.6l18.1,6.7
					c0.5,0.2,0.8,0.8,0.6,1.3C1191.7,326.2,1191.3,326.4,1190.9,326.4z"/>
			</g>
			<g>
				<path class="st21" d="M1187.6,329.9c-0.1,0-0.2,0-0.3-0.1c-5.5-2-16.1-5.8-17-6.1c-0.5-0.2-0.8-0.7-0.7-1.2
					c0.2-0.5,0.7-0.8,1.2-0.7c1.2,0.3,16.5,5.9,17.1,6.1c0.5,0.2,0.8,0.8,0.6,1.3C1188.4,329.6,1188,329.9,1187.6,329.9z"/>
			</g>
			<g>
				<path class="st21" d="M1174.6,345.1c-0.1,0-0.3,0-0.4-0.1c-5.4-2.3-14.4-6-15.4-6.2c-0.5-0.1-0.9-0.6-0.8-1.2
					c0.1-0.5,0.6-0.9,1.2-0.8c1.5,0.3,13.4,5.4,15.8,6.4c0.5,0.2,0.7,0.8,0.5,1.3C1175.3,344.9,1175,345.1,1174.6,345.1z"/>
			</g>
			<g>
				<path class="st21" d="M1172.8,348.4c-0.1,0-0.3,0-0.4-0.1l-15.3-6.4c-0.5-0.2-0.8-0.8-0.5-1.3c0.2-0.5,0.8-0.8,1.3-0.5l15.3,6.4
					c0.5,0.2,0.8,0.8,0.5,1.3C1173.6,348.2,1173.2,348.4,1172.8,348.4z"/>
			</g>
			<g>
				<path class="st21" d="M1205.9,310.2c-0.1,0-0.1,0-0.2,0l-24-4.5c-0.5-0.1-0.9-0.6-0.8-1.2c0.1-0.5,0.6-0.9,1.2-0.8l24,4.5
					c0.5,0.1,0.9,0.6,0.8,1.2C1206.8,309.9,1206.4,310.2,1205.9,310.2z"/>
			</g>
			<g>
				<path class="st21" d="M1163.5,358.6c-0.1,0-0.3,0-0.4-0.1l-11-4.5c-0.5-0.2-0.8-0.8-0.5-1.3c0.2-0.5,0.8-0.8,1.3-0.5l11,4.5
					c0.5,0.2,0.8,0.8,0.5,1.3C1164.3,358.4,1163.9,358.6,1163.5,358.6z"/>
			</g>
			<g>
				<path class="st21" d="M1161.4,363.3c-0.1,0-0.3,0-0.4-0.1l-10.2-4.7c-0.5-0.2-0.7-0.8-0.5-1.3c0.2-0.5,0.8-0.7,1.3-0.5l10.2,4.7
					c0.5,0.2,0.7,0.8,0.5,1.3C1162.1,363.1,1161.7,363.3,1161.4,363.3z"/>
			</g>
			<g>
				<path class="st21" d="M1155.7,381.1c-0.1,0-0.3,0-0.4-0.1l-14-6.3c-0.5-0.2-0.7-0.8-0.5-1.3c0.2-0.5,0.8-0.7,1.3-0.5l14,6.3
					c0.5,0.2,0.7,0.8,0.5,1.3C1156.4,380.8,1156.1,381.1,1155.7,381.1z"/>
			</g>
			<g>
				<path class="st21" d="M1153.6,385.3c-0.1,0-0.3,0-0.4-0.1c-12.7-5.6-13-5.8-13.1-5.9c-0.5-0.3-0.6-0.9-0.3-1.4
					c0.3-0.4,0.9-0.6,1.3-0.3c0.6,0.3,8,3.6,12.8,5.7c0.5,0.2,0.7,0.8,0.5,1.3C1154.3,385.1,1153.9,385.3,1153.6,385.3z"/>
			</g>
			<g>
				<path class="st18" d="M1158,322c-0.2,0-0.5-0.1-0.7-0.2c-0.4-0.3-0.5-0.7-0.5-1.1l1-6.5c0.1-0.7,0.7-1.1,1.4-1
					c0.7,0.1,1.1,0.7,1,1.4l-0.6,4.2l12.1-6c0.6-0.3,1.3-0.1,1.6,0.5c0.3,0.6,0.1,1.3-0.5,1.6l-14.2,7
					C1158.4,321.9,1158.2,322,1158,322z"/>
			</g>
		</g>
	</g>
</g>
</svg>
