<?xml version="1.0" encoding="utf-8"?>
<!-- Generator: Adobe Illustrator 23.0.0, SVG Export Plug-In . SVG Version: 6.00 Build 0)  -->
<svg version="1.1" id="Layer_1" xmlns="http://www.w3.org/2000/svg" xmlns:xlink="http://www.w3.org/1999/xlink" x="0px" y="0px"
	 viewBox="0 0 32 32" style="enable-background:new 0 0 32 32;" xml:space="preserve">
<style type="text/css">
	.st0{fill:#D8E1EF;}
	.st1{fill:#00BFD8;}
</style>
<title></title>
<g id="In">
	<path class="st0" d="M14,3h12c2.2,0,4,1.8,4,4v18c0,2.2-1.8,4-4,4H14c-2.2,0-4-1.8-4-4V7C10,4.8,11.8,3,14,3z"/>
	<path class="st1" d="M22.7,15.3l-4-4c-0.4-0.4-1-0.4-1.4,0s-0.4,1,0,1.4l2.3,2.3H3c-0.6,0-1,0.4-1,1c0,0.6,0.4,1,1,1h16.6l-2.3,2.3
		c-0.4,0.4-0.4,1,0,1.4c0,0,0,0,0,0c0.4,0.4,1,0.4,1.4,0c0,0,0,0,0,0l4-4C23.1,16.3,23.1,15.7,22.7,15.3z"/>
</g>
</svg>
