<svg xmlns="http://www.w3.org/2000/svg" viewBox="0 0 157.4 42.32"><defs><style>.cls-1,.cls-3{fill:#00bfd8;}.cls-2{fill:#fff;}.cls-3{font-size:30px;font-family:MyriadPro-Regular, Myriad Pro;}.cls-4{letter-spacing:-0.01em;}</style></defs><title>LOGOO</title><g id="Layer_2" data-name="Layer 2"><g id="Layer_3" data-name="Layer 3"><circle class="cls-1" cx="20.8" cy="20.8" r="20.8"/><path class="cls-2" d="M19.2,30.4a9.19,9.19,0,0,1-3.3-.6,7.74,7.74,0,0,1-4.6-7.6,10.3,10.3,0,0,1,1-4.6,12.25,12.25,0,0,1,2.6-3.8,12.68,12.68,0,0,1,3.9-2.6,11.62,11.62,0,0,1,4.9-1,8.39,8.39,0,0,1,5.1,1.4,4.76,4.76,0,0,1,1.9,4.1c0,4.2-3.8,6.3-11.3,6.3H18a7.57,7.57,0,0,1-1.5-.1v.5a5.2,5.2,0,0,0,.9,3.2,3.07,3.07,0,0,0,2.8,1.2,5.3,5.3,0,0,0,2.8-.7,5.06,5.06,0,0,0,2.1-2l4,1.2a9.09,9.09,0,0,1-1.8,2.1A10,10,0,0,1,24.9,29,16.62,16.62,0,0,1,22,30,9,9,0,0,1,19.2,30.4Zm3.6-16.7a4.48,4.48,0,0,0-2,.4,6.19,6.19,0,0,0-1.7,1.1,10.1,10.1,0,0,0-1.3,1.6,6.63,6.63,0,0,0-.9,1.9h2.4c1,0,2-.1,3-.2a6.64,6.64,0,0,0,2-.6,3.13,3.13,0,0,0,1.1-.9,2.38,2.38,0,0,0,.3-1.2,1.82,1.82,0,0,0-.8-1.6,5,5,0,0,0-2.1-.5Z"/><text class="cls-3" transform="translate(44.84 31.22)"><tspan class="cls-4">v</tspan><tspan x="14.13" y="0">oting</tspan></text></g></g></svg>