<?xml version="1.0" encoding="utf-8"?>
<!-- Generator: Adobe Illustrator 23.0.0, SVG Export Plug-In . SVG Version: 6.00 Build 0)  -->
<svg version="1.1" id="Layer_3" xmlns="http://www.w3.org/2000/svg" xmlns:xlink="http://www.w3.org/1999/xlink" x="0px" y="0px"
	 viewBox="0 0 155.2 41.6" style="enable-background:new 0 0 155.2 41.6;" xml:space="preserve">
<style type="text/css">
	.st0{fill:#00BFD8;}
	.st1{fill:#FFFFFF;}
	.st2{fill:none;}
	.st3{font-family:'MyriadPro-Regular';}
	.st4{font-size:30px;}
</style>
<title>logo</title>
<circle class="st0" cx="20.8" cy="20.8" r="20.8"/>
<path class="st1" d="M19.2,30.4c-1.1,0-2.3-0.2-3.3-0.6c-1.9-0.8-3.4-2.4-4.1-4.3c-0.4-1.1-0.6-2.2-0.5-3.3c0-1.6,0.3-3.2,1-4.6
	c0.6-1.4,1.5-2.7,2.6-3.8s2.5-2,3.9-2.6c1.5-0.7,3.2-1,4.9-1c1.8-0.1,3.6,0.4,5.1,1.4c1.3,1,2,2.5,1.9,4.1c0,4.2-3.8,6.3-11.3,6.3
	H18c-0.5,0-1,0-1.5-0.1v0.5c-0.1,1.1,0.3,2.3,0.9,3.2c0.7,0.9,1.7,1.3,2.8,1.2c1,0,2-0.2,2.8-0.7c0.9-0.5,1.6-1.1,2.1-2l4,1.2
	c-0.5,0.8-1.1,1.5-1.8,2.1c-0.7,0.6-1.5,1.2-2.4,1.6c-1,0.4-1.9,0.8-2.9,1C21.1,30.3,20.1,30.4,19.2,30.4z M22.8,13.7
	c-0.7,0-1.4,0.1-2,0.4c-0.6,0.3-1.2,0.6-1.7,1.1s-0.9,1-1.3,1.6c-0.4,0.6-0.7,1.2-0.9,1.9c0.4,0,0.8,0,1.2,0h1.2c1,0,2-0.1,3-0.2
	c0.7-0.1,1.4-0.3,2-0.6c0.4-0.2,0.8-0.5,1.1-0.9c0.2-0.3,0.3-0.8,0.3-1.2c0-0.7-0.3-1.3-0.8-1.6C24.3,13.9,23.5,13.7,22.8,13.7
	L22.8,13.7L22.8,13.7z"/>
<rect x="43.4" y="3.7" class="st2" width="50.4" height="10.3"/>
<rect x="93.3" y="8.5" class="st2" width="45.8" height="17.5"/>
<rect x="44.8" y="9.9" class="st2" width="112.6" height="32.4"/>
<text transform="matrix(1 0 0 1 44.8398 31.2193)" class="st0 st3 st4">voting</text>
</svg>
