<?xml version="1.0" encoding="utf-8"?>
<!-- Generator: Adobe Illustrator 23.0.0, SVG Export Plug-In . SVG Version: 6.00 Build 0)  -->
<svg version="1.1" id="Layer_1" xmlns="http://www.w3.org/2000/svg" xmlns:xlink="http://www.w3.org/1999/xlink" x="0px" y="0px"
	 viewBox="0 0 48 48" style="enable-background:new 0 0 48 48;" xml:space="preserve">
<style type="text/css">
	.st0{fill:#00BFD8;}
	.st1{fill:#FCFCFC;}
</style>
<g>
	<ellipse class="st0" cx="24" cy="24" rx="24" ry="24"/>
	<path id="path1" class="st1" d="M21.3,21.3c-0.3,0-0.3,0.1-0.3,0.1c-0.1,0.1,0,0.5,0,0.7c0.2,2.4,0.2,8.9,0.2,9.2l0,2.5L19.3,32
		c-0.5-0.6-1.3-1.2-1.5-1.3c-0.1,0-0.3,0.1-0.4,0.2c0,0,0,0.1,0.2,0.3c1.1,1.5,3,5.1,3.3,5.7c0.4,0.5,1.1,1.1,1.4,1.1h5
		c0.7-0.5,1.4-1.1,1.5-1.3c0.4-0.9,0.6-3,0.5-5.4c0-0.1-0.3-0.4-0.5-0.5c-0.8,0-1.2-0.6-1.4-1c-0.1-0.2-0.3-0.5-0.4-0.6
		c-0.5,0-0.9-0.2-1.3-0.5c-0.3-0.2-0.5-0.3-0.7-0.3c-1.1,0.3-2.1,0.3-2.1,0.3l-1,0l-0.1-6.8c0-0.1,0-0.2-0.1-0.3
		C21.7,21.4,21.5,21.3,21.3,21.3z M21.3,19.3c1,0,1.6,0.4,1.9,0.8c0.6,0.7,0.6,1.6,0.6,1.7l0.1,4.7c0.2,0,0.4-0.1,0.6-0.1
		c1-0.3,1.8,0.2,2.3,0.5c0.1,0.1,0.2,0.1,0.3,0.2h0c1.1,0,1.8,1,2.1,1.5c0,0,0.1,0.1,0.1,0.1c0.4,0.1,0.7,0.2,1.1,0.5
		c0.5,0.4,1,1.1,1.1,1.8c0.1,1.1,0.2,4.7-0.7,6.5c-0.4,0.7-1.7,1.7-2.4,2.2L28,39.9h-5.7c-1.6,0-2.8-1.6-3.1-2l-0.1-0.1
		c0,0-2.1-4-3.2-5.5c-0.9-1.3-0.4-2.3-0.2-2.6c0.6-0.8,1.9-1.2,2.6-0.9c0.2,0.1,0.4,0.2,0.6,0.3c0-2.2-0.1-5.4-0.1-6.8
		c0-0.6-0.1-1.5,0.6-2.3C19.9,19.6,20.5,19.3,21.3,19.3z M21.4,13.9c-0.5,0-0.9,0.2-1.1,0.5c-0.3,0.3-0.4,0.8-0.4,1.5
		c0,0.6,0.1,1.1,0.4,1.5c0.3,0.3,0.7,0.5,1.1,0.5s0.8-0.2,1.1-0.5c0.3-0.3,0.4-0.8,0.4-1.5c0-0.7-0.1-1.1-0.4-1.5
		C22.2,14.1,21.8,13.9,21.4,13.9z M29.9,13h4.2v1H31v1.3h2.9v1H31v1.6h3.2v1h-4.3V13z M24.6,13h4.5v1h-1.7v4.7h-1.2V14h-1.7V13z
		 M12.9,13h1.2l1.4,4.2L17,13h1.2l-2,5.7H15L12.9,13z M21.4,12.9c0.8,0,1.5,0.3,2,0.8c0.5,0.5,0.8,1.2,0.8,2.2
		c0,0.9-0.3,1.6-0.8,2.2c-0.5,0.5-1.2,0.8-2,0.8c-0.8,0-1.5-0.3-2-0.8c-0.5-0.5-0.8-1.2-0.8-2.1c0-0.6,0.1-1.1,0.3-1.5
		c0.1-0.3,0.3-0.6,0.5-0.8c0.2-0.2,0.5-0.4,0.7-0.5C20.5,13,20.9,12.9,21.4,12.9z M11,8.1h26c2.6,0,3,2.1,3,2.9v10
		c0,1.7-1.3,3.1-3,3.1H25v-2h12c0.3,0,1-0.4,1-1.1v-10c0-0.3-0.2-0.9-1-0.9H11c-0.4,0-1,0.4-1,0.9v10c0,0.7,0.6,1.1,1,1.1h7v2h-7
		c-1.8,0-3-1.5-3-3.1v-10C8,9.7,8.7,8.1,11,8.1z"/>
</g>
</svg>
